<svg width="17" height="16" viewBox="0 0 17 16" fill="none" xmlns="http://www.w3.org/2000/svg">
<path d="M13.5306 9.53063L9.0306 14.0306C8.96092 14.1005 8.87813 14.156 8.78696 14.1939C8.6958 14.2317 8.59806 14.2512 8.49935 14.2512C8.40064 14.2512 8.3029 14.2317 8.21173 14.1939C8.12057 14.156 8.03778 14.1005 7.9681 14.0306L3.4681 9.53063C3.3272 9.38973 3.24805 9.19863 3.24805 8.99938C3.24805 8.80012 3.3272 8.60902 3.4681 8.46813C3.60899 8.32723 3.80009 8.24807 3.99935 8.24807C4.19861 8.24807 4.3897 8.32723 4.5306 8.46813L7.74997 11.6875V2.5C7.74997 2.30109 7.82899 2.11032 7.96964 1.96967C8.11029 1.82902 8.30106 1.75 8.49997 1.75C8.69888 1.75 8.88965 1.82902 9.0303 1.96967C9.17095 2.11032 9.24997 2.30109 9.24997 2.5V11.6875L12.4693 8.4675C12.6102 8.3266 12.8013 8.24745 13.0006 8.24745C13.1999 8.24745 13.391 8.3266 13.5318 8.4675C13.6727 8.6084 13.7519 8.79949 13.7519 8.99875C13.7519 9.19801 13.6727 9.3891 13.5318 9.53L13.5306 9.53063Z" fill="white"/>
</svg>
