<svg width="400" height="580" viewBox="0 0 400 580" fill="none" xmlns="http://www.w3.org/2000/svg">
<g opacity="0.5">
<circle cx="2" cy="2" r="2" fill="#DAD8ED"/>
<circle cx="38" cy="2" r="2" fill="#DAD8ED"/>
<circle cx="74" cy="2" r="2" fill="#DAD8ED"/>
<circle cx="110" cy="2" r="2" fill="#DAD8ED"/>
<circle cx="146" cy="2" r="2" fill="#DAD8ED"/>
<circle cx="182" cy="2" r="2" fill="#DAD8ED"/>
<circle cx="218" cy="2" r="2" fill="#DAD8ED"/>
<circle cx="254" cy="2" r="2" fill="#DAD8ED"/>
<circle cx="290" cy="2" r="2" fill="#DAD8ED"/>
<circle cx="326" cy="2" r="2" fill="#DAD8ED"/>
<circle cx="362" cy="2" r="2" fill="#DAD8ED"/>
<circle cx="398" cy="2" r="2" fill="#DAD8ED"/>
<circle cx="2" cy="38" r="2" fill="#DAD8ED"/>
<circle cx="38" cy="38" r="2" fill="#DAD8ED"/>
<circle cx="74" cy="38" r="2" fill="#DAD8ED"/>
<circle cx="110" cy="38" r="2" fill="#DAD8ED"/>
<circle cx="146" cy="38" r="2" fill="#DAD8ED"/>
<circle cx="182" cy="38" r="2" fill="#DAD8ED"/>
<circle cx="218" cy="38" r="2" fill="#DAD8ED"/>
<circle cx="254" cy="38" r="2" fill="#DAD8ED"/>
<circle cx="290" cy="38" r="2" fill="#DAD8ED"/>
<circle cx="326" cy="38" r="2" fill="#DAD8ED"/>
<circle cx="362" cy="38" r="2" fill="#DAD8ED"/>
<circle cx="398" cy="38" r="2" fill="#DAD8ED"/>
<circle cx="2" cy="74" r="2" fill="#DAD8ED"/>
<circle cx="38" cy="74" r="2" fill="#DAD8ED"/>
<circle cx="74" cy="74" r="2" fill="#DAD8ED"/>
<circle cx="110" cy="74" r="2" fill="#DAD8ED"/>
<circle cx="146" cy="74" r="2" fill="#DAD8ED"/>
<circle cx="182" cy="74" r="2" fill="#DAD8ED"/>
<circle cx="218" cy="74" r="2" fill="#DAD8ED"/>
<circle cx="254" cy="74" r="2" fill="#DAD8ED"/>
<circle cx="290" cy="74" r="2" fill="#DAD8ED"/>
<circle cx="326" cy="74" r="2" fill="#DAD8ED"/>
<circle cx="362" cy="74" r="2" fill="#DAD8ED"/>
<circle cx="398" cy="74" r="2" fill="#DAD8ED"/>
<circle cx="2" cy="110" r="2" fill="#DAD8ED"/>
<circle cx="38" cy="110" r="2" fill="#DAD8ED"/>
<circle cx="74" cy="110" r="2" fill="#DAD8ED"/>
<circle cx="110" cy="110" r="2" fill="#DAD8ED"/>
<circle cx="146" cy="110" r="2" fill="#DAD8ED"/>
<circle cx="182" cy="110" r="2" fill="#DAD8ED"/>
<circle cx="218" cy="110" r="2" fill="#DAD8ED"/>
<circle cx="254" cy="110" r="2" fill="#DAD8ED"/>
<circle cx="290" cy="110" r="2" fill="#DAD8ED"/>
<circle cx="326" cy="110" r="2" fill="#DAD8ED"/>
<circle cx="362" cy="110" r="2" fill="#DAD8ED"/>
<circle cx="398" cy="110" r="2" fill="#DAD8ED"/>
<circle cx="2" cy="146" r="2" fill="#DAD8ED"/>
<circle cx="38" cy="146" r="2" fill="#DAD8ED"/>
<circle cx="74" cy="146" r="2" fill="#DAD8ED"/>
<circle cx="110" cy="146" r="2" fill="#DAD8ED"/>
<circle cx="146" cy="146" r="2" fill="#DAD8ED"/>
<circle cx="182" cy="146" r="2" fill="#DAD8ED"/>
<circle cx="218" cy="146" r="2" fill="#DAD8ED"/>
<circle cx="254" cy="146" r="2" fill="#DAD8ED"/>
<circle cx="290" cy="146" r="2" fill="#DAD8ED"/>
<circle cx="326" cy="146" r="2" fill="#DAD8ED"/>
<circle cx="362" cy="146" r="2" fill="#DAD8ED"/>
<circle cx="398" cy="146" r="2" fill="#DAD8ED"/>
<circle cx="2" cy="182" r="2" fill="#DAD8ED"/>
<circle cx="38" cy="182" r="2" fill="#DAD8ED"/>
<circle cx="74" cy="182" r="2" fill="#DAD8ED"/>
<circle cx="110" cy="182" r="2" fill="#DAD8ED"/>
<circle cx="146" cy="182" r="2" fill="#DAD8ED"/>
<circle cx="182" cy="182" r="2" fill="#DAD8ED"/>
<circle cx="218" cy="182" r="2" fill="#DAD8ED"/>
<circle cx="254" cy="182" r="2" fill="#DAD8ED"/>
<circle cx="290" cy="182" r="2" fill="#DAD8ED"/>
<circle cx="326" cy="182" r="2" fill="#DAD8ED"/>
<circle cx="362" cy="182" r="2" fill="#DAD8ED"/>
<circle cx="398" cy="182" r="2" fill="#DAD8ED"/>
<circle cx="2" cy="218" r="2" fill="#DAD8ED"/>
<circle cx="38" cy="218" r="2" fill="#DAD8ED"/>
<circle cx="74" cy="218" r="2" fill="#DAD8ED"/>
<circle cx="110" cy="218" r="2" fill="#DAD8ED"/>
<circle cx="146" cy="218" r="2" fill="#DAD8ED"/>
<circle cx="182" cy="218" r="2" fill="#DAD8ED"/>
<circle cx="218" cy="218" r="2" fill="#DAD8ED"/>
<circle cx="254" cy="218" r="2" fill="#DAD8ED"/>
<circle cx="290" cy="218" r="2" fill="#DAD8ED"/>
<circle cx="326" cy="218" r="2" fill="#DAD8ED"/>
<circle cx="362" cy="218" r="2" fill="#DAD8ED"/>
<circle cx="398" cy="218" r="2" fill="#DAD8ED"/>
<circle cx="2" cy="254" r="2" fill="#DAD8ED"/>
<circle cx="38" cy="254" r="2" fill="#DAD8ED"/>
<circle cx="74" cy="254" r="2" fill="#DAD8ED"/>
<circle cx="110" cy="254" r="2" fill="#DAD8ED"/>
<circle cx="146" cy="254" r="2" fill="#DAD8ED"/>
<circle cx="182" cy="254" r="2" fill="#DAD8ED"/>
<circle cx="218" cy="254" r="2" fill="#DAD8ED"/>
<circle cx="254" cy="254" r="2" fill="#DAD8ED"/>
<circle cx="290" cy="254" r="2" fill="#DAD8ED"/>
<circle cx="326" cy="254" r="2" fill="#DAD8ED"/>
<circle cx="362" cy="254" r="2" fill="#DAD8ED"/>
<circle cx="398" cy="254" r="2" fill="#DAD8ED"/>
<circle cx="2" cy="290" r="2" fill="#DAD8ED"/>
<circle cx="38" cy="290" r="2" fill="#DAD8ED"/>
<circle cx="74" cy="290" r="2" fill="#DAD8ED"/>
<circle cx="110" cy="290" r="2" fill="#DAD8ED"/>
<circle cx="146" cy="290" r="2" fill="#DAD8ED"/>
<circle cx="182" cy="290" r="2" fill="#DAD8ED"/>
<circle cx="218" cy="290" r="2" fill="#DAD8ED"/>
<circle cx="254" cy="290" r="2" fill="#DAD8ED"/>
<circle cx="290" cy="290" r="2" fill="#DAD8ED"/>
<circle cx="326" cy="290" r="2" fill="#DAD8ED"/>
<circle cx="362" cy="290" r="2" fill="#DAD8ED"/>
<circle cx="398" cy="290" r="2" fill="#DAD8ED"/>
<circle cx="2" cy="326" r="2" fill="#DAD8ED"/>
<circle cx="38" cy="326" r="2" fill="#DAD8ED"/>
<circle cx="74" cy="326" r="2" fill="#DAD8ED"/>
<circle cx="110" cy="326" r="2" fill="#DAD8ED"/>
<circle cx="146" cy="326" r="2" fill="#DAD8ED"/>
<circle cx="182" cy="326" r="2" fill="#DAD8ED"/>
<circle cx="218" cy="326" r="2" fill="#DAD8ED"/>
<circle cx="254" cy="326" r="2" fill="#DAD8ED"/>
<circle cx="290" cy="326" r="2" fill="#DAD8ED"/>
<circle cx="326" cy="326" r="2" fill="#DAD8ED"/>
<circle cx="362" cy="326" r="2" fill="#DAD8ED"/>
<circle cx="398" cy="326" r="2" fill="#DAD8ED"/>
<circle cx="2" cy="362" r="2" fill="#DAD8ED"/>
<circle cx="38" cy="362" r="2" fill="#DAD8ED"/>
<circle cx="74" cy="362" r="2" fill="#DAD8ED"/>
<circle cx="110" cy="362" r="2" fill="#DAD8ED"/>
<circle cx="146" cy="362" r="2" fill="#DAD8ED"/>
<circle cx="182" cy="362" r="2" fill="#DAD8ED"/>
<circle cx="218" cy="362" r="2" fill="#DAD8ED"/>
<circle cx="254" cy="362" r="2" fill="#DAD8ED"/>
<circle cx="290" cy="362" r="2" fill="#DAD8ED"/>
<circle cx="326" cy="362" r="2" fill="#DAD8ED"/>
<circle cx="362" cy="362" r="2" fill="#DAD8ED"/>
<circle cx="398" cy="362" r="2" fill="#DAD8ED"/>
<circle cx="2" cy="398" r="2" fill="#DAD8ED"/>
<circle cx="38" cy="398" r="2" fill="#DAD8ED"/>
<circle cx="74" cy="398" r="2" fill="#DAD8ED"/>
<circle cx="110" cy="398" r="2" fill="#DAD8ED"/>
<circle cx="146" cy="398" r="2" fill="#DAD8ED"/>
<circle cx="182" cy="398" r="2" fill="#DAD8ED"/>
<circle cx="218" cy="398" r="2" fill="#DAD8ED"/>
<circle cx="254" cy="398" r="2" fill="#DAD8ED"/>
<circle cx="290" cy="398" r="2" fill="#DAD8ED"/>
<circle cx="326" cy="398" r="2" fill="#DAD8ED"/>
<circle cx="362" cy="398" r="2" fill="#DAD8ED"/>
<circle cx="398" cy="398" r="2" fill="#DAD8ED"/>
<circle cx="2" cy="434" r="2" fill="#DAD8ED"/>
<circle cx="38" cy="434" r="2" fill="#DAD8ED"/>
<circle cx="74" cy="434" r="2" fill="#DAD8ED"/>
<circle cx="110" cy="434" r="2" fill="#DAD8ED"/>
<circle cx="146" cy="434" r="2" fill="#DAD8ED"/>
<circle cx="182" cy="434" r="2" fill="#DAD8ED"/>
<circle cx="218" cy="434" r="2" fill="#DAD8ED"/>
<circle cx="254" cy="434" r="2" fill="#DAD8ED"/>
<circle cx="290" cy="434" r="2" fill="#DAD8ED"/>
<circle cx="326" cy="434" r="2" fill="#DAD8ED"/>
<circle cx="362" cy="434" r="2" fill="#DAD8ED"/>
<circle cx="398" cy="434" r="2" fill="#DAD8ED"/>
<circle cx="2" cy="470" r="2" fill="#DAD8ED"/>
<circle cx="38" cy="470" r="2" fill="#DAD8ED"/>
<circle cx="74" cy="470" r="2" fill="#DAD8ED"/>
<circle cx="110" cy="470" r="2" fill="#DAD8ED"/>
<circle cx="146" cy="470" r="2" fill="#DAD8ED"/>
<circle cx="182" cy="470" r="2" fill="#DAD8ED"/>
<circle cx="218" cy="470" r="2" fill="#DAD8ED"/>
<circle cx="254" cy="470" r="2" fill="#DAD8ED"/>
<circle cx="290" cy="470" r="2" fill="#DAD8ED"/>
<circle cx="326" cy="470" r="2" fill="#DAD8ED"/>
<circle cx="362" cy="470" r="2" fill="#DAD8ED"/>
<circle cx="398" cy="470" r="2" fill="#DAD8ED"/>
<circle cx="2" cy="506" r="2" fill="#DAD8ED"/>
<circle cx="38" cy="506" r="2" fill="#DAD8ED"/>
<circle cx="74" cy="506" r="2" fill="#DAD8ED"/>
<circle cx="110" cy="506" r="2" fill="#DAD8ED"/>
<circle cx="146" cy="506" r="2" fill="#DAD8ED"/>
<circle cx="182" cy="506" r="2" fill="#DAD8ED"/>
<circle cx="218" cy="506" r="2" fill="#DAD8ED"/>
<circle cx="254" cy="506" r="2" fill="#DAD8ED"/>
<circle cx="290" cy="506" r="2" fill="#DAD8ED"/>
<circle cx="326" cy="506" r="2" fill="#DAD8ED"/>
<circle cx="362" cy="506" r="2" fill="#DAD8ED"/>
<circle cx="398" cy="506" r="2" fill="#DAD8ED"/>
<circle cx="2" cy="542" r="2" fill="#DAD8ED"/>
<circle cx="38" cy="542" r="2" fill="#DAD8ED"/>
<circle cx="74" cy="542" r="2" fill="#DAD8ED"/>
<circle cx="110" cy="542" r="2" fill="#DAD8ED"/>
<circle cx="146" cy="542" r="2" fill="#DAD8ED"/>
<circle cx="182" cy="542" r="2" fill="#DAD8ED"/>
<circle cx="218" cy="542" r="2" fill="#DAD8ED"/>
<circle cx="254" cy="542" r="2" fill="#DAD8ED"/>
<circle cx="290" cy="542" r="2" fill="#DAD8ED"/>
<circle cx="326" cy="542" r="2" fill="#DAD8ED"/>
<circle cx="362" cy="542" r="2" fill="#DAD8ED"/>
<circle cx="398" cy="542" r="2" fill="#DAD8ED"/>
<circle cx="2" cy="578" r="2" fill="#DAD8ED"/>
<circle cx="38" cy="578" r="2" fill="#DAD8ED"/>
<circle cx="74" cy="578" r="2" fill="#DAD8ED"/>
<circle cx="110" cy="578" r="2" fill="#DAD8ED"/>
<circle cx="146" cy="578" r="2" fill="#DAD8ED"/>
<circle cx="182" cy="578" r="2" fill="#DAD8ED"/>
<circle cx="218" cy="578" r="2" fill="#DAD8ED"/>
<circle cx="254" cy="578" r="2" fill="#DAD8ED"/>
<circle cx="290" cy="578" r="2" fill="#DAD8ED"/>
<circle cx="326" cy="578" r="2" fill="#DAD8ED"/>
<circle cx="362" cy="578" r="2" fill="#DAD8ED"/>
<circle cx="398" cy="578" r="2" fill="#DAD8ED"/>
</g>
</svg>
