<svg width="673" height="104" viewBox="0 0 673 104" fill="none" xmlns="http://www.w3.org/2000/svg">
<g clip-path="url(#clip0_1_760)">
<path d="M241.098 2.02335H263.053V101.572H241.098V2.02335Z" fill="black"/>
<path d="M374.82 98.7393C368.434 95.5019 363.244 90.6459 359.652 84.5759C356.059 78.5058 354.063 71.6265 354.063 64.3424C354.063 56.6537 356.059 49.7743 359.652 44.1089C363.244 38.0389 368.434 33.5875 374.82 29.9455C381.207 26.7082 388.392 24.6848 396.375 24.6848C404.359 24.6848 411.145 26.3035 417.132 29.9455C423.12 33.1829 427.511 38.0389 430.305 44.5136L413.141 53.821C409.149 46.9416 403.56 43.2996 395.976 43.2996C390.388 43.2996 385.598 45.323 381.606 48.965C378.014 52.607 376.018 57.8677 376.018 64.3424C376.018 70.8171 378.014 76.0778 381.606 79.7198C385.199 83.3619 389.989 85.3852 395.976 85.3852C403.56 85.3852 409.149 81.7432 413.141 74.8638L430.305 84.1712C427.511 90.2412 423.12 95.0973 417.132 98.3346C411.145 101.572 404.359 103.595 396.375 103.595C388.392 104 381.207 102.381 374.82 98.7393Z" fill="black"/>
<path d="M492.974 99.144C490.979 100.763 488.184 101.977 484.991 102.786C481.798 103.595 478.604 104 475.012 104C465.831 104 459.045 101.572 454.255 97.1206C449.465 92.6693 447.07 85.7899 447.07 76.4825V44.9183H435.095V27.9222H446.671V9.30739H468.625V27.9222H487.386V44.9183H468.625V76.0778C468.625 79.3152 469.423 81.7432 471.02 83.3619C472.617 84.9805 475.012 86.1945 477.806 86.1945C481.399 86.1945 484.193 85.3852 486.588 83.3619L492.974 99.144Z" fill="black"/>
<path d="M150.886 78.9105C148.092 81.3385 145.298 83.3619 142.504 84.5759C139.31 85.7899 136.117 86.1946 132.125 86.1946C126.537 86.1946 121.747 84.9805 117.755 82.1479C113.763 79.3152 111.368 75.6732 110.57 70.8171H167.651C168.05 67.1751 168.05 65.1518 168.05 64.7471C168.05 56.6537 166.454 49.7743 162.861 43.7043C159.269 37.6342 154.878 33.1829 148.89 29.9455C142.903 26.7082 136.117 25.0895 128.932 25.0895C121.348 25.0895 114.562 26.7082 108.175 30.3502C102.187 33.5875 97.3974 38.4436 93.8049 44.5136C90.2123 50.5837 88.6157 57.463 88.6157 64.7471C88.6157 72.4358 90.2123 79.3152 93.8049 84.9805C97.3974 91.0506 102.587 95.5019 108.973 99.144C115.36 102.381 122.944 104.405 131.726 104.405C144.499 104.405 154.079 100.763 161.265 93.8833L150.886 78.9105ZM116.158 46.1323C119.352 43.2996 123.743 41.6809 128.533 41.6809C133.323 41.6809 137.714 43.2996 140.907 46.1323C144.1 48.965 146.495 53.0117 146.894 57.8677H109.772C110.969 53.0117 112.965 48.965 116.158 46.1323Z" fill="black"/>
<path d="M332.508 78.9105C329.714 81.3385 326.92 83.3619 324.126 84.5759C320.932 85.7899 317.739 86.1946 313.747 86.1946C308.159 86.1946 303.369 84.9805 299.377 82.1479C295.386 79.3152 292.99 75.6732 292.192 70.8171H349.273C349.673 67.1751 349.673 65.1518 349.673 64.7471C349.673 56.6537 348.076 49.7743 344.483 43.7043C340.891 37.6342 336.5 33.1829 330.512 29.9455C324.525 26.7082 317.739 25.0895 310.554 25.0895C302.97 25.0895 296.184 26.7082 289.797 30.3502C283.81 33.5875 279.02 38.4436 275.427 44.5136C271.835 50.5837 270.238 57.463 270.238 64.7471C270.238 72.4358 271.835 79.3152 275.427 84.9805C279.02 91.0506 284.209 95.5019 290.595 99.144C296.982 102.381 304.566 104.405 313.348 104.405C326.122 104.405 335.702 100.763 342.887 93.8833L332.508 78.9105ZM297.781 46.1323C300.974 43.2996 305.365 41.6809 310.155 41.6809C314.945 41.6809 319.336 43.2996 322.529 46.1323C325.722 48.965 328.117 53.0117 328.517 57.8677H291.394C292.192 53.0117 294.188 48.965 297.781 46.1323Z" fill="black"/>
<path d="M65.0646 69.6031C71.4514 66.7704 76.6406 62.7237 80.2331 57.463C83.8256 52.2023 85.4223 45.7276 85.4223 38.4436C85.4223 31.1595 83.4265 24.2802 80.2331 19.0195C76.6406 13.7588 71.8505 9.30739 65.4638 6.47471C59.0771 3.64202 51.4929 2.02335 42.7111 2.02335H0V74.0545L19.1601 101.977H43.5095L24.3493 74.0545H43.9087L63.0688 101.977H87.4181L65.0646 69.6031ZM57.0813 50.9883C53.4887 54.2257 48.2995 55.4397 41.5136 55.4397H22.7527V21.0428H41.1145C47.9004 21.0428 53.0896 22.6615 56.6821 25.4942C60.2746 28.3268 61.8713 32.7782 61.8713 38.4436C62.2705 43.7043 60.6738 48.1556 57.0813 50.9883Z" fill="black"/>
<path d="M235.51 30.7549C239.103 16.1868 232.317 7.68872 225.93 4.04669C221.938 1.61868 215.951 0 209.564 0C200.383 0.404669 193.198 2.42802 188.009 7.68872C182.82 12.9494 180.425 19.8288 180.425 28.3268V34.8016H168.849V51.7977H180.425V101.572H202.379V52.2023H218.745V35.2062H201.98V28.7315C201.98 21.4475 205.173 17.4008 211.959 17.8054C216.35 18.2101 220.342 22.2568 219.144 26.7082L235.51 30.7549Z" fill="black"/>
<path d="M673 83.3619V101.977H596.759V2.02335H671.004V20.6381H619.112V42.4903H652.642V60.2957H619.112V83.3619H673Z" fill="black"/>
<path d="M576.401 72.4358C569.615 80.1245 561.632 84.1712 551.652 84.1712C545.665 84.1712 540.077 82.9572 535.286 80.1245C530.496 77.2918 526.904 73.6498 524.11 68.7938C521.316 63.9377 520.118 58.2724 520.118 52.2023C520.118 46.1323 521.316 40.4669 524.11 35.6109C526.904 30.7549 530.496 27.1128 535.286 24.2802C540.077 21.4475 545.665 20.2335 551.652 20.2335C561.632 20.2335 569.615 24.2802 576.401 31.9689L587.977 14.9728C583.985 10.9261 579.195 7.68872 573.607 5.2607C566.821 2.02335 558.837 0.809339 550.455 0.809339C540.476 0.809339 531.295 2.83268 522.912 7.28405C514.929 11.7354 508.542 17.8054 503.752 25.4942C498.962 33.1829 496.966 42.0856 496.966 52.2023C496.966 61.9144 499.361 70.8171 503.752 78.9105C508.542 86.5992 514.929 93.0739 522.912 97.1206C530.896 101.572 540.077 103.595 550.056 103.595C558.438 103.595 566.422 101.977 573.208 99.144C578.796 96.7159 583.586 93.4786 587.578 89.0272L576.401 72.4358Z" fill="black"/>
</g>
<defs>
<clipPath id="clip0_1_760">
<rect width="673" height="104" fill="white"/>
</clipPath>
</defs>
</svg>
