<svg width="85" height="14" viewBox="0 0 85 14" fill="none" xmlns="http://www.w3.org/2000/svg">
<g clip-path="url(#clip0_1_1071)">
<path d="M30.4507 0.272374H33.2235V13.6732H30.4507V0.272374Z" fill="#53F7DF"/>
<path d="M47.3399 13.2918C46.5332 12.856 45.8778 12.2023 45.4241 11.3852C44.9703 10.5681 44.7183 9.64202 44.7183 8.66148C44.7183 7.62646 44.9703 6.70039 45.4241 5.93774C45.8778 5.12062 46.5332 4.5214 47.3399 4.03113C48.1465 3.59533 49.054 3.32296 50.0623 3.32296C51.0706 3.32296 51.9276 3.54086 52.6839 4.03113C53.4401 4.46693 53.9947 5.12062 54.3476 5.99222L52.1797 7.24514C51.6756 6.31907 50.9697 5.82879 50.0119 5.82879C49.306 5.82879 48.7011 6.10117 48.1969 6.59144C47.7432 7.08171 47.4911 7.78988 47.4911 8.66148C47.4911 9.53307 47.7432 10.2412 48.1969 10.7315C48.6506 11.2218 49.2556 11.4942 50.0119 11.4942C50.9697 11.4942 51.6756 11.0039 52.1797 10.0778L54.3476 11.3307C53.9947 12.1479 53.4401 12.8016 52.6839 13.2374C51.9276 13.6732 51.0706 13.9455 50.0623 13.9455C49.054 14 48.1465 13.7821 47.3399 13.2918Z" fill="#53F7DF"/>
<path d="M62.2628 13.3463C62.0108 13.5642 61.6579 13.7276 61.2545 13.8366C60.8512 13.9455 60.4479 14 59.9942 14C58.8346 14 57.9775 13.6732 57.3726 13.0739C56.7676 12.4747 56.4651 11.5486 56.4651 10.2957V6.04669H54.9526V3.75875H56.4147V1.25292H59.1875V3.75875H61.557V6.04669H59.1875V10.2412C59.1875 10.677 59.2883 11.0039 59.49 11.2218C59.6917 11.4397 59.9942 11.6031 60.3471 11.6031C60.8008 11.6031 61.1537 11.4942 61.4562 11.2218L62.2628 13.3463Z" fill="#53F7DF"/>
<path d="M19.0571 10.6226C18.7042 10.9494 18.3513 11.2218 17.9984 11.3852C17.5951 11.5486 17.1918 11.6031 16.6876 11.6031C15.9818 11.6031 15.3768 11.4397 14.8727 11.0584C14.3685 10.677 14.066 10.1868 13.9652 9.53307H21.1746C21.225 9.0428 21.225 8.77043 21.225 8.71595C21.225 7.62646 21.0233 6.70039 20.5696 5.88327C20.1159 5.06615 19.5613 4.46693 18.8051 4.03113C18.0488 3.59533 17.1918 3.37743 16.2843 3.37743C15.3264 3.37743 14.4694 3.59533 13.6627 4.0856C12.9065 4.5214 12.3015 5.1751 11.8478 5.99222C11.394 6.80934 11.1924 7.73541 11.1924 8.71595C11.1924 9.75097 11.394 10.677 11.8478 11.4397C12.3015 12.2568 12.9569 12.856 13.7636 13.3463C14.5702 13.7821 15.5281 14.0545 16.6372 14.0545C18.2505 14.0545 19.4605 13.5642 20.3679 12.6381L19.0571 10.6226ZM14.671 6.21012C15.0744 5.82879 15.6289 5.61089 16.2339 5.61089C16.8389 5.61089 17.3934 5.82879 17.7968 6.21012C18.2001 6.59144 18.5026 7.13619 18.553 7.78988H13.8644C14.0156 7.13619 14.2677 6.59144 14.671 6.21012Z" fill="#53F7DF"/>
<path d="M41.9956 10.6226C41.6427 10.9494 41.2898 11.2218 40.9369 11.3852C40.5336 11.5486 40.1303 11.6031 39.6261 11.6031C38.9203 11.6031 38.3153 11.4397 37.8112 11.0584C37.307 10.677 37.0045 10.1868 36.9037 9.53307H44.1131C44.1635 9.0428 44.1635 8.77043 44.1635 8.71595C44.1635 7.62646 43.9618 6.70039 43.5081 5.88327C43.0543 5.06615 42.4998 4.46693 41.7436 4.03113C40.9873 3.59533 40.1303 3.37743 39.2228 3.37743C38.2649 3.37743 37.4078 3.59533 36.6012 4.0856C35.845 4.5214 35.24 5.1751 34.7863 5.99222C34.3325 6.80934 34.1309 7.73541 34.1309 8.71595C34.1309 9.75097 34.3325 10.677 34.7863 11.4397C35.24 12.2568 35.8954 12.856 36.702 13.3463C37.5087 13.7821 38.4666 14.0545 39.5757 14.0545C41.189 14.0545 42.399 13.5642 43.3064 12.6381L41.9956 10.6226ZM37.6095 6.21012C38.0128 5.82879 38.5674 5.61089 39.1724 5.61089C39.7774 5.61089 40.3319 5.82879 40.7353 6.21012C41.1386 6.59144 41.4411 7.13619 41.4915 7.78988H36.8029C36.9037 7.13619 37.1558 6.59144 37.6095 6.21012Z" fill="#53F7DF"/>
<path d="M8.21767 9.36965C9.02432 8.98833 9.67972 8.44358 10.1335 7.73541C10.5872 7.02724 10.7888 6.15564 10.7888 5.1751C10.7888 4.19455 10.5368 3.26848 10.1335 2.56031C9.67972 1.85214 9.07473 1.25292 8.26809 0.871595C7.46145 0.490273 6.50356 0.272374 5.39442 0.272374H0V9.96887L2.41993 13.7276H5.49525L3.07533 9.96887H5.54567L7.9656 13.7276H11.0409L8.21767 9.36965ZM7.20937 6.86381C6.75563 7.29961 6.10024 7.46303 5.24318 7.46303H2.87367V2.83268H5.19276C6.04982 2.83268 6.70522 3.05058 7.15896 3.43191C7.61269 3.81323 7.81435 4.41245 7.81435 5.1751C7.86477 5.88327 7.66311 6.48249 7.20937 6.86381Z" fill="#53F7DF"/>
<path d="M29.745 4.14008C30.1988 2.17899 29.3417 1.03502 28.5351 0.544747C28.0309 0.217899 27.2747 0 26.468 0C25.3085 0.0544747 24.401 0.326848 23.7456 1.03502C23.0902 1.74319 22.7877 2.66926 22.7877 3.81323V4.68482H21.3257V6.97276H22.7877V13.6732H25.5606V7.02724H27.6276V4.7393H25.5101V3.8677C25.5101 2.88716 25.9135 2.34241 26.7705 2.39689C27.3251 2.45136 27.8292 2.99611 27.678 3.59533L29.745 4.14008Z" fill="#53F7DF"/>
<path d="M84.9999 11.2218V13.7276H75.3706V0.272374H84.7478V2.77821H78.1939V5.71984H82.4287V8.11673H78.1939V11.2218H84.9999Z" fill="#53F7DF"/>
<path d="M72.7997 9.75097C71.9426 10.786 70.9343 11.3307 69.674 11.3307C68.9177 11.3307 68.2119 11.1673 67.6069 10.786C67.002 10.4047 66.5482 9.9144 66.1953 9.2607C65.8424 8.607 65.6912 7.84436 65.6912 7.02724C65.6912 6.21012 65.8424 5.44747 66.1953 4.79377C66.5482 4.14008 67.002 3.64981 67.6069 3.26848C68.2119 2.88716 68.9177 2.72374 69.674 2.72374C70.9343 2.72374 71.9426 3.26848 72.7997 4.3035L74.2618 2.01556C73.7576 1.47082 73.1526 1.03502 72.4468 0.708171C71.5897 0.272373 70.5814 0.108949 69.5227 0.108949C68.2623 0.108949 67.1028 0.381323 66.0441 0.980544C65.0358 1.57977 64.2291 2.39689 63.6241 3.43191C63.0192 4.46693 62.7671 5.66537 62.7671 7.02724C62.7671 8.33463 63.0696 9.53307 63.6241 10.6226C64.2291 11.6576 65.0358 12.5292 66.0441 13.0739C67.0524 13.6732 68.2119 13.9455 69.4723 13.9455C70.531 13.9455 71.5393 13.7276 72.3964 13.3463C73.1022 13.0195 73.7072 12.5837 74.2113 11.9844L72.7997 9.75097Z" fill="#53F7DF"/>
</g>
<defs>
<clipPath id="clip0_1_1071">
<rect width="85" height="14" fill="white"/>
</clipPath>
</defs>
</svg>
