<svg width="693" height="108" viewBox="0 0 693 108" fill="none" xmlns="http://www.w3.org/2000/svg">
<path d="M248.027 2.08153H270.612V104.491H248.027V2.08153Z" fill="#7A71EF"/>
<path d="M385.59 101.577C379.02 98.2462 373.682 93.2506 369.986 87.0061C366.29 80.7617 364.237 73.6846 364.237 66.1913C364.237 58.2816 366.29 51.2046 369.986 45.3764C373.682 39.1319 379.02 34.5527 385.59 30.806C392.161 27.4756 399.552 25.3941 407.765 25.3941C415.978 25.3941 422.959 27.0593 429.118 30.806C435.278 34.1364 439.795 39.1319 442.669 45.7927L425.012 55.3675C420.905 48.2905 415.156 44.5438 407.354 44.5438C401.605 44.5438 396.678 46.6253 392.571 50.372C388.875 54.1186 386.822 59.5305 386.822 66.1913C386.822 72.852 388.875 78.2639 392.571 82.0106C396.267 85.7572 401.195 87.8387 407.354 87.8387C415.156 87.8387 420.905 84.0921 425.012 77.015L442.669 86.5898C439.795 92.8343 435.278 97.8299 429.118 101.16C422.959 104.491 415.978 106.572 407.765 106.572C399.552 106.988 392.161 105.323 385.59 101.577Z" fill="#7A71EF"/>
<path d="M507.14 101.993C505.087 103.658 502.212 104.907 498.927 105.739C495.642 106.572 492.357 106.988 488.661 106.988C479.217 106.988 472.236 104.491 467.308 99.9113C462.38 95.3321 459.917 88.255 459.917 78.6802V46.209H447.597V28.7245H459.506V9.57479H482.091V28.7245H501.391V46.209H482.091V78.2639C482.091 81.5942 482.912 84.092 484.555 85.7572C486.198 87.4224 488.661 88.6713 491.536 88.6713C495.232 88.6713 498.106 87.8387 500.57 85.7572L507.14 101.993Z" fill="#7A71EF"/>
<path d="M155.222 81.178C152.347 83.6758 149.473 85.7573 146.598 87.0062C143.313 88.2551 140.028 88.6714 135.921 88.6714C130.173 88.6714 125.245 87.4225 121.138 84.5084C117.032 81.5943 114.568 77.8476 113.747 72.8521H172.468C172.879 69.1054 172.879 67.0239 172.879 66.6076C172.879 58.2817 171.236 51.2046 167.541 44.9601C163.845 38.7157 159.328 34.1364 153.168 30.806C147.009 27.4756 140.028 25.8105 132.636 25.8105C124.834 25.8105 117.853 27.4756 111.283 31.2223C105.123 34.5527 100.196 39.5483 96.5001 45.7927C92.8043 52.0372 91.1617 59.1142 91.1617 66.6076C91.1617 74.5172 92.8043 81.5943 96.5001 87.4225C100.196 93.6669 105.534 98.2462 112.104 101.993C118.675 105.323 126.477 107.405 135.511 107.405C148.651 107.405 158.507 103.658 165.898 96.581L155.222 81.178ZM119.496 47.4579C122.781 44.5438 127.298 42.8786 132.226 42.8786C137.153 42.8786 141.67 44.5438 144.956 47.4579C148.241 50.372 150.704 54.535 151.115 59.5305H112.926C114.158 54.535 116.211 50.372 119.496 47.4579Z" fill="#7A71EF"/>
<path d="M342.063 81.178C339.189 83.6758 336.315 85.7573 333.44 87.0062C330.155 88.2551 326.87 88.6714 322.763 88.6714C317.014 88.6714 312.087 87.4225 307.98 84.5084C303.874 81.5943 301.41 77.8476 300.589 72.8521H359.31C359.721 69.1054 359.721 67.0239 359.721 66.6076C359.721 58.2817 358.078 51.2046 354.383 44.9601C350.687 38.7157 346.17 34.1364 340.01 30.806C333.851 27.4756 326.87 25.8105 319.478 25.8105C311.676 25.8105 304.695 27.4756 298.125 31.2223C291.965 34.5527 287.038 39.5483 283.342 45.7927C279.646 52.0372 278.004 59.1142 278.004 66.6076C278.004 74.5172 279.646 81.5943 283.342 87.4225C287.038 93.6669 292.376 98.2462 298.946 101.993C305.517 105.323 313.319 107.405 322.353 107.405C335.493 107.405 345.349 103.658 352.74 96.581L342.063 81.178ZM306.338 47.4579C309.623 44.5438 314.14 42.8786 319.068 42.8786C323.995 42.8786 328.512 44.5438 331.797 47.4579C335.083 50.372 337.546 54.535 337.957 59.5305H299.768C300.589 54.535 302.642 50.372 306.338 47.4579Z" fill="#7A71EF"/>
<path d="M66.9343 71.6032C73.5045 68.6891 78.8428 64.5261 82.5386 59.1143C86.2343 53.7024 87.8769 47.0416 87.8769 39.5483C87.8769 32.0549 85.8237 24.9779 82.5386 19.566C78.8428 14.1541 73.9151 9.57488 67.3449 6.6608C60.7747 3.74672 52.9725 2.08153 43.9384 2.08153H0V76.1824L19.7107 104.907H44.7597L25.049 76.1824H45.1704L64.8811 104.907H89.9301L66.9343 71.6032ZM58.7215 52.4535C55.0257 55.7839 49.6874 57.0328 42.7065 57.0328H23.4065V21.6475H42.2959C49.2768 21.6475 54.6151 23.3127 58.3108 26.2268C62.0066 29.1409 63.6492 33.7201 63.6492 39.5483C64.0598 44.9601 62.4172 49.5394 58.7215 52.4535Z" fill="#7A71EF"/>
<path d="M242.277 31.6386C245.973 16.6519 238.992 7.90966 232.422 4.16298C228.316 1.6652 222.156 1.14441e-05 215.586 1.14441e-05C206.141 0.416309 198.749 2.4978 193.411 7.90966C188.073 13.3215 185.609 20.3986 185.609 29.1408V35.8016H173.7V53.2861H185.609V104.491H208.194V53.7024H225.03V36.2179H207.784V29.5571C207.784 22.0638 211.069 17.9008 218.05 18.3171C222.567 18.7334 226.673 22.8964 225.441 27.4756L242.277 31.6386Z" fill="#7A71EF"/>
<path d="M692.339 85.7573V104.907H613.906V2.08153H690.285V21.2312H636.902V43.7113H671.396V62.0283H636.902V85.7573H692.339Z" fill="#7A71EF"/>
<path d="M592.963 74.5172C585.982 82.4268 577.769 86.5898 567.503 86.5898C561.344 86.5898 555.595 85.3409 550.667 82.4268C545.739 79.5127 542.044 75.7661 539.169 70.7705C536.295 65.7749 535.063 59.9468 535.063 53.7023C535.063 47.4578 536.295 41.6297 539.169 36.6341C542.044 31.6385 545.739 27.8919 550.667 24.9778C555.595 22.0637 561.344 20.8148 567.503 20.8148C577.769 20.8148 585.982 24.9778 592.963 32.8874L604.871 15.4029C600.765 11.24 595.837 7.90959 590.088 5.41181C583.108 2.08143 574.895 0.832539 566.271 0.832539C556.005 0.832539 546.561 2.91402 537.937 7.4933C529.724 12.0726 523.154 18.317 518.226 26.2267C513.299 34.1363 511.246 43.2949 511.246 53.7023C511.246 63.6934 513.709 72.852 518.226 81.1779C523.154 89.0876 529.724 95.7483 537.937 99.9113C546.15 104.491 555.595 106.572 565.861 106.572C574.484 106.572 582.697 104.907 589.678 101.993C595.427 99.495 600.354 96.1646 604.461 91.5854L592.963 74.5172Z" fill="#7A71EF"/>
<mask id="mask0_1_889" style="mask-type:alpha" maskUnits="userSpaceOnUse" x="0" y="0" width="693" height="108">
<path fill-rule="evenodd" clip-rule="evenodd" d="M232.422 4.16297C238.992 7.90965 245.973 16.6519 242.277 31.6386L225.441 27.4756C226.673 22.8964 222.567 18.7334 218.049 18.3171C211.069 17.9008 207.784 22.0638 207.784 29.5571V36.2179H225.03V53.7024H208.194V104.491H185.609V53.2861H173.7V35.8016H185.609V29.1408C185.609 20.3986 188.073 13.3215 193.411 7.90965C198.749 2.49778 206.141 0.416297 215.586 0C222.156 0 228.315 1.66519 232.422 4.16297ZM66.9343 71.6032C73.5045 68.6891 78.8428 64.5261 82.5386 59.1143C86.2343 53.7024 87.8769 47.0416 87.8769 39.5483C87.8769 32.0549 85.8237 24.9779 82.5386 19.566C78.8428 14.1541 73.9151 9.57487 67.3449 6.66079C60.7747 3.7467 52.9725 2.08151 43.9384 2.08151H0V76.1824L19.7107 104.907H44.7597L25.049 76.1824H45.1704L64.8811 104.907H89.9301L66.9343 71.6032ZM58.7215 52.4535C55.0257 55.7839 49.6874 57.0328 42.7065 57.0328H23.4065V21.6475H42.2959C49.2768 21.6475 54.6151 23.3127 58.3108 26.2268C62.0066 29.1408 63.6492 33.7201 63.6492 39.5483C64.0598 44.9601 62.4172 49.5394 58.7215 52.4535ZM248.027 2.08151H270.612V104.491H248.027V2.08151ZM385.59 101.577C379.02 98.2462 373.682 93.2506 369.986 87.0061C366.29 80.7617 364.237 73.6846 364.237 66.1913C364.237 58.2816 366.29 51.2045 369.986 45.3764C373.682 39.1319 379.02 34.5527 385.59 30.806C392.161 27.4756 399.552 25.3941 407.765 25.3941C415.978 25.3941 422.959 27.0593 429.118 30.806C435.278 34.1364 439.795 39.1319 442.669 45.7927L425.012 55.3675C420.905 48.2905 415.156 44.5438 407.354 44.5438C401.605 44.5438 396.678 46.6253 392.571 50.372C388.875 54.1186 386.822 59.5305 386.822 66.1913C386.822 72.852 388.875 78.2639 392.571 82.0106C396.267 85.7572 401.195 87.8387 407.354 87.8387C415.156 87.8387 420.905 84.092 425.012 77.015L442.669 86.5898C439.795 92.8343 435.278 97.8298 429.118 101.16C422.959 104.491 415.978 106.572 407.765 106.572C399.552 106.988 392.161 105.323 385.59 101.577ZM498.927 105.739C502.213 104.907 505.087 103.658 507.14 101.993L500.57 85.7572C498.106 87.8387 495.232 88.6713 491.536 88.6713C488.661 88.6713 486.198 87.4224 484.555 85.7572C482.913 84.092 482.091 81.5942 482.091 78.2638V46.209H501.391V28.7245H482.091V9.57478H459.506V28.7245H447.598V46.209H459.917V78.6801C459.917 88.255 462.381 95.332 467.308 99.9113C472.236 104.491 479.217 106.988 488.661 106.988C492.357 106.988 495.642 106.572 498.927 105.739ZM155.222 81.178C152.347 83.6758 149.473 85.7573 146.598 87.0061C143.313 88.255 140.028 88.6713 135.921 88.6713C130.172 88.6713 125.245 87.4224 121.138 84.5084C117.032 81.5943 114.568 77.8476 113.747 72.852H172.468C172.879 69.1054 172.879 67.0239 172.879 66.6076C172.879 58.2816 171.236 51.2046 167.541 44.9601C163.845 38.7157 159.328 34.1364 153.168 30.806C147.009 27.4756 140.028 25.8104 132.636 25.8104C124.834 25.8104 117.853 27.4756 111.283 31.2223C105.123 34.5527 100.196 39.5483 96.5 45.7927C92.8043 52.0372 91.1617 59.1142 91.1617 66.6076C91.1617 74.5172 92.8043 81.5943 96.5 87.4224C100.196 93.6669 105.534 98.2462 112.104 101.993C118.675 105.323 126.477 107.405 135.511 107.405C148.651 107.405 158.507 103.658 165.898 96.581L155.222 81.178ZM119.496 47.4579C122.781 44.5438 127.298 42.8786 132.226 42.8786C137.153 42.8786 141.67 44.5438 144.956 47.4579C148.241 50.372 150.704 54.535 151.115 59.5305H112.926C114.158 54.535 116.211 50.372 119.496 47.4579ZM333.44 87.0061C336.315 85.7573 339.189 83.6758 342.064 81.178L352.74 96.581C345.349 103.658 335.493 107.405 322.353 107.405C313.319 107.405 305.517 105.323 298.946 101.993C292.376 98.2462 287.038 93.6669 283.342 87.4224C279.646 81.5943 278.004 74.5172 278.004 66.6076C278.004 59.1142 279.646 52.0372 283.342 45.7927C287.038 39.5483 291.965 34.5527 298.125 31.2223C304.695 27.4756 311.676 25.8104 319.478 25.8104C326.87 25.8104 333.851 27.4756 340.01 30.806C346.17 34.1364 350.687 38.7157 354.383 44.9601C358.078 51.2046 359.721 58.2816 359.721 66.6076C359.721 67.0239 359.721 69.1054 359.31 72.852H300.589C301.41 77.8476 303.874 81.5943 307.98 84.5084C312.087 87.4224 317.014 88.6713 322.763 88.6713C326.87 88.6713 330.155 88.255 333.44 87.0061ZM319.068 42.8786C314.14 42.8786 309.623 44.5438 306.338 47.4579C302.642 50.372 300.589 54.535 299.768 59.5305H337.957C337.546 54.535 335.083 50.372 331.798 47.4579C328.512 44.5438 323.995 42.8786 319.068 42.8786ZM692.339 85.7573V104.907H613.906V2.08151H690.286V21.2312H636.902V43.7113H671.396V62.0283H636.902V85.7573H692.339ZM567.503 86.5898C577.769 86.5898 585.982 82.4268 592.963 74.5172L604.461 91.5853C600.354 96.1646 595.427 99.495 589.678 101.993C582.697 104.907 574.484 106.572 565.861 106.572C555.595 106.572 546.15 104.491 537.937 99.9113C529.724 95.7483 523.154 89.0876 518.227 81.1779C513.709 72.852 511.246 63.6934 511.246 53.7023C511.246 43.2949 513.299 34.1363 518.227 26.2267C523.154 18.317 529.724 12.0726 537.937 7.49328C546.561 2.91401 556.005 0.832528 566.271 0.832528C574.895 0.832528 583.108 2.08142 590.088 5.4118C595.837 7.90958 600.765 11.24 604.872 15.4029L592.963 32.8874C585.982 24.9778 577.769 20.8148 567.503 20.8148C561.344 20.8148 555.595 22.0637 550.667 24.9778C545.739 27.8919 542.044 31.6385 539.169 36.6341C536.295 41.6297 535.063 47.4578 535.063 53.7023C535.063 59.9468 536.295 65.7749 539.169 70.7705C542.044 75.766 545.739 79.5127 550.667 82.4268C555.595 85.3409 561.344 86.5898 567.503 86.5898Z" fill="#7A71EF"/>
</mask>
<g mask="url(#mask0_1_889)">
<path d="M-198 -208L149.009 293H590L242.991 -208H-198Z" fill="white"/>
</g>
</svg>
