<svg width="1460" height="418" viewBox="0 0 1460 418" fill="none" xmlns="http://www.w3.org/2000/svg">
<g clip-path="url(#clip0_30_1358)">
<path d="M1128.6 111.547C1121.06 146.498 1093.94 138.634 1093.94 138.634L1136.27 156.842C1136.27 156.842 1152.13 160.412 1159.9 129.039L1128.59 111.555" fill="white"/>
<path d="M1128.6 111.547C1121.06 146.498 1093.94 138.634 1093.94 138.634L1136.27 156.842C1136.27 156.842 1152.13 160.412 1159.9 129.039L1128.59 111.555" stroke="#181730" stroke-width="0.596514" stroke-miterlimit="10"/>
<path d="M374.69 280.556C374.69 280.556 354.943 263.579 337.172 230.659L298.394 219.605C320.718 257.103 333.057 271.704 333.057 271.704L374.69 280.556Z" fill="white" stroke="#181730" stroke-width="0.596514" stroke-miterlimit="10"/>
<path d="M280.054 150.708C265.379 135.464 266.394 107.796 266.394 107.796L290.369 128.057C290.369 128.057 295.476 157.884 306.505 172.215L280.047 150.707L280.054 150.708Z" fill="white" stroke="#181730" stroke-width="0.596514" stroke-miterlimit="10"/>
<path d="M853.009 320.625C853.009 320.625 856.56 326.802 846.741 337.371C835.104 349.882 804.704 368.559 727.376 390.396L784.527 310.446C834.295 293.987 867.191 279.197 888.93 266.72C889.019 266.665 889.11 266.62 889.2 266.565L853 320.625L853.009 320.625Z" fill="#7A71EF" stroke="#2D2C3F" stroke-width="0.596514" stroke-miterlimit="10" stroke-linejoin="bevel"/>
<path d="M593.426 395.137C593.426 395.137 701.572 392.119 770.813 356.906L837.278 269.093C756.97 312.432 629.175 333.368 629.175 333.368L593.425 395.127L593.426 395.137Z" fill="#7A71EF" stroke="#2D2C3F" stroke-width="0.596514" stroke-miterlimit="10"/>
<path d="M497.195 373.339L497.541 373.417L497.607 373.126C497.541 373.417 497.542 373.417 497.542 373.417L497.545 373.418L497.557 373.421L497.603 373.431C497.644 373.44 497.705 373.453 497.786 373.471C497.844 373.483 497.912 373.498 497.99 373.515C498.13 373.545 498.302 373.581 498.506 373.624C499.142 373.756 500.087 373.947 501.324 374.181C503.797 374.648 507.438 375.288 512.111 375.977C521.456 377.356 534.93 378.934 551.448 379.732C584.483 381.328 629.701 379.803 678.429 367.319L678.541 367.29L678.604 367.193L732.474 284.661L732.907 283.998L732.144 284.211C667.955 302.116 615.694 308.969 579.483 311.346C561.378 312.534 547.286 312.604 537.721 312.377C532.939 312.263 529.289 312.075 526.835 311.916C525.609 311.836 524.681 311.764 524.06 311.711C523.75 311.685 523.517 311.664 523.361 311.649C523.323 311.645 523.289 311.642 523.261 311.639C523.231 311.636 523.206 311.634 523.186 311.632L523.142 311.628L523.132 311.626L523.129 311.626C523.129 311.626 523.128 311.626 523.097 311.923L523.128 311.626L522.908 311.603L522.822 311.808L497.332 373.011L497.195 373.339Z" fill="white" stroke="#181730" stroke-width="0.596514" stroke-miterlimit="10"/>
<path d="M473.025 236.692L472.448 236.119L472.513 236.879L445.632 320.563L445.572 320.75L445.719 320.879C471.301 343.314 507.353 351.643 536.97 354.372C551.785 355.737 565.002 355.703 574.516 355.327C579.273 355.139 583.105 354.866 585.749 354.64C587.07 354.526 588.095 354.425 588.789 354.352C589.137 354.315 589.401 354.286 589.58 354.265C589.669 354.255 589.736 354.247 589.781 354.242L589.833 354.236L589.846 354.234L589.849 354.234C589.85 354.233 589.85 354.233 589.814 353.937L589.85 354.233L590.003 354.215L590.076 354.079L633.587 273.14L633.879 272.596L633.271 272.706L633.324 272.999C633.271 272.706 633.271 272.706 633.27 272.706L633.266 272.706L633.252 272.709L633.196 272.719C633.146 272.728 633.07 272.741 632.971 272.758C632.771 272.792 632.473 272.841 632.083 272.904C631.301 273.029 630.147 273.205 628.658 273.41C625.681 273.82 621.363 274.345 616.009 274.803C605.3 275.718 590.445 276.366 573.862 275.296C540.685 273.154 500.647 264.139 473.025 236.692Z" fill="white" stroke="#181730" stroke-width="0.596514" stroke-miterlimit="10"/>
<path d="M1092.13 263.597C1125.17 235.578 1119.66 176.593 1119.66 176.593L1162.33 204.462C1162.33 204.462 1164.28 256.332 1137.14 282.413L1092.13 263.597Z" fill="white" stroke="#181730" stroke-width="0.596514" stroke-miterlimit="10"/>
<path d="M595.548 373.644L631.901 306.014C625.818 306.911 619.952 307.687 614.324 308.376L589.83 353.944C589.83 353.944 549.538 358.909 507.453 349.526L500.603 365.982C546.843 379.658 595.548 373.653 595.548 373.653L595.548 373.644Z" fill="#7A71EF"/>
<path d="M515.688 341.076L521.804 327.526C478.35 319.705 461.706 303.471 455.408 291.124L449.096 310.784C458.094 322.22 476.843 334.892 515.688 341.076Z" fill="#7A71EF"/>
<path d="M541.56 125.288L521.063 152.509L541.56 125.288Z" fill="#181730"/>
<path d="M912.64 242.124L846.754 337.369C856.574 326.809 853.022 320.622 853.022 320.622L913.643 230.088C913.643 230.088 925.675 225.847 912.649 242.123L912.64 242.124Z" fill="white" stroke="#181730" stroke-width="0.596514" stroke-miterlimit="10"/>
<path d="M846.751 337.371C856.571 326.811 853.019 320.624 853.019 320.624L890.19 265.235" stroke="#2D2C3F" stroke-width="0.596514" stroke-miterlimit="10"/>
<path d="M777.04 145.254L776.982 145.343L777.037 145.329L777.04 145.254Z" fill="white"/>
<path d="M109.988 147.877C109.988 147.877 148.068 155.172 195.401 184.515L253.668 170.06C197.063 138.17 170.314 128.467 170.314 128.467L109.988 147.877Z" fill="white" stroke="#181730" stroke-width="0.596514" stroke-miterlimit="10"/>
<path d="M123.584 213.894C123.584 213.894 101.834 192.551 83.6202 152.751L39.1938 136.861C62.3684 182.362 75.6551 200.351 75.6551 200.351L123.584 213.894Z" fill="white" stroke="#181730" stroke-width="0.596514" stroke-miterlimit="10"/>
<path d="M1273.37 191.53C1273.37 191.53 1291.75 203.475 1310.27 228.94L1343.87 233.803C1321.03 205.026 1309.1 194.238 1309.1 194.238L1273.37 191.53Z" fill="white" stroke="#181730" stroke-width="0.596514" stroke-miterlimit="10"/>
<path d="M1268.89 217.618C1268.89 217.618 1245.44 202.172 1221.91 169.407L1178.92 162.91C1207.94 199.95 1223.14 213.864 1223.14 213.864L1268.89 217.618Z" fill="#7A71EF" stroke="#181730" stroke-width="0.596514" stroke-miterlimit="10"/>
<path d="M1420.55 250.36C1406.83 251.132 1401.34 246.059 1399.37 240.508C1397.22 234.416 1399.31 227.758 1399.31 227.758L1384.08 216.722C1387.63 218.145 1392.28 218.881 1398.36 218.542L1420.55 250.365L1420.55 250.36Z" fill="#7A71EF" stroke="#2D2C3F" stroke-width="0.596514" stroke-miterlimit="10" stroke-linejoin="bevel"/>
<path d="M1399.3 227.756C1399.3 227.756 1396.38 237.417 1401.11 243.817L1375.21 208.721C1371.32 200.835 1374.12 191.115 1374.12 191.115L1399.3 227.753L1399.3 227.756Z" fill="#53F7DF" stroke="#181730" stroke-width="0.596514" stroke-miterlimit="10"/>
<path d="M976.67 206.346L976.586 206.446C976.586 206.446 976.645 206.376 976.67 206.346Z" fill="white" stroke="#181730" stroke-width="0.596514" stroke-miterlimit="10"/>
<path d="M965.722 134.073C965.722 134.073 965.721 134.073 965.666 134.366L965.721 134.073L965.551 134.04L965.438 134.172L896.559 215.068L896.367 215.294L896.592 215.488L896.592 215.488L896.593 215.489L896.6 215.495L896.626 215.518C896.65 215.539 896.685 215.57 896.732 215.612C896.825 215.697 896.963 215.824 897.14 215.993C897.494 216.331 898.004 216.837 898.628 217.505C899.874 218.842 901.569 220.826 903.361 223.415C906.943 228.593 910.906 236.181 912.43 245.829C913.5 252.632 913.362 260.461 911.015 269.199C908.262 279.448 902.479 290.95 892.034 303.523L892.489 303.908L892.493 303.904L976.436 207.076L976.437 207.086L976.9 206.551C989.873 191.523 995.701 179.469 997.109 169.828C998.52 160.17 995.492 152.961 990.825 147.655C986.167 142.358 979.886 138.965 974.784 136.897C972.231 135.862 969.968 135.156 968.343 134.71C967.53 134.486 966.876 134.327 966.425 134.224C966.199 134.173 966.024 134.135 965.905 134.11C965.846 134.098 965.8 134.088 965.769 134.082L965.734 134.075L965.725 134.074L965.722 134.073Z" fill="white" stroke="#181730" stroke-width="0.596514" stroke-miterlimit="10"/>
<path d="M1173.42 270.522C1173.42 270.522 1194.02 259.638 1203.92 271.686L1208.42 244.059C1197.85 229.45 1177.67 238.811 1177.67 238.811L1173.42 270.522Z" fill="#7A71EF" stroke="#181730" stroke-width="0.596514" stroke-miterlimit="10"/>
<path d="M934.777 254.685L953.378 233.238C945.421 215.412 928.866 204.319 911.981 197.42L896.794 215.26C896.794 215.26 901.251 219.111 905.544 226.226C917.582 232.783 928.426 241.936 934.787 254.694L934.777 254.685Z" fill="#7A71EF"/>
<path d="M379.816 179.917C379.816 179.917 352.836 161.109 339.276 137.149L372.407 133.706C384.034 155.404 410.105 172.215 410.105 172.215L379.813 179.911L379.816 179.917Z" fill="#7A71EF" stroke="#181730" stroke-width="0.596514" stroke-miterlimit="10" stroke-linejoin="bevel"/>
<path d="M563.523 246.164C474.353 234.788 488.251 165.166 488.251 165.166L451.705 275.088C451.705 275.088 446.163 315.579 526.411 328.351L563.513 246.165" fill="white"/>
<path d="M563.523 246.164C474.353 234.788 488.251 165.166 488.251 165.166L451.705 275.088C451.705 275.088 446.163 315.579 526.411 328.351L563.513 246.165" stroke="#181730" stroke-width="0.596514" stroke-miterlimit="10"/>
<path d="M478.892 301.642L484.86 287.793C472.126 267.578 471.683 252.671 476.316 241.884L492.476 201.496C491.401 198.858 490.536 196.258 489.856 193.718L473.517 234.556L467.001 250.832C462.036 262.489 462.987 278.912 478.882 301.634L478.892 301.642Z" fill="#7A71EF"/>
<path d="M488.189 292.79C468.141 264.141 471.761 245.476 481.136 233.802C491.423 220.981 508.619 216.583 508.619 216.583L512.089 168.872C513.768 178.459 518.406 189.503 527.274 202.188L488.181 292.8L488.189 292.79Z" fill="#7A71EF" stroke="#2D2C3F" stroke-width="0.596514" stroke-miterlimit="10" stroke-linejoin="bevel"/>
<path d="M508.62 216.574C508.62 216.574 483.821 223.2 476.311 241.989L517.519 138.981C529.37 120.019 554.129 113.047 554.129 113.047L508.629 216.573L508.62 216.574Z" fill="white" stroke="#181730" stroke-width="0.596514" stroke-miterlimit="10"/>
<path d="M658.495 452.641C658.495 452.641 666.324 361.162 659.173 342.442C652.023 323.723 644.198 316.577 643.519 291.048C642.84 265.519 647.092 252.247 647.942 239.482C648.791 226.718 649.811 209.872 650.665 203.746C651.519 197.62 652.027 188.6 655.942 180.262C659.856 171.925 660.706 164.244 667.515 162.042C674.324 159.839 683.003 165.457 676.023 188.258C676.023 188.258 675.003 200.169 672.958 204.766C672.958 204.766 675.984 214.177 676.325 219.624L682.526 218.021C682.526 218.021 683.17 206.216 684.615 198.22C684.615 198.22 682.486 188.521 684.019 171.671V150.315C684.019 150.315 683.34 137.297 695.676 136.701C695.676 136.701 708.015 134.744 706.737 153.21L706.395 170.055L708.098 190.815C708.098 190.815 708.865 197.624 709.119 203.917C709.373 210.209 709.119 211.151 709.119 211.151L712.35 210.98C712.35 210.98 714.391 197.366 714.478 195.409C714.566 193.451 714.732 176.264 716.777 164.012L718.222 140.612C718.222 140.612 719.072 130.825 727.838 131.591C736.605 132.357 738.391 138.926 737.792 147.084C737.192 155.241 737.897 166.648 737.897 166.648C737.897 166.648 738.645 197.874 738.475 199.831C738.304 201.789 739.547 208.681 738.501 212L741.028 211.488C741.028 211.488 742.473 198.982 742.985 197.957L743.41 170.813C743.41 170.813 740.261 164.345 741.794 148.691C743.326 133.036 755.92 137.205 758.898 140.69C761.875 144.176 766.81 171.321 766.81 171.321L770.725 200.931C770.725 200.931 771.999 226.455 773.957 230.286C775.914 234.118 775.826 236.754 775.826 236.754L778.892 236.925C778.892 236.925 781.957 220.333 787.229 212.758C787.229 212.758 779.912 204.504 784.505 183.06C789.099 161.617 801.097 167.572 801.097 167.572C801.097 167.572 802.967 167.318 803.308 168.509C803.65 169.7 804.245 183.231 804.245 185.442C804.245 185.442 805.353 189.865 810.542 195.737C815.731 201.609 817.18 206.627 816.497 219.05C815.814 231.473 814.54 248.065 814.711 252.321C814.882 256.577 815.648 270.02 792.335 301.246C769.022 332.472 773.077 350.368 776.028 365.121C778.979 379.873 795.089 452.628 795.089 452.628H658.495V452.641Z" fill="#DAD8ED" stroke="#2D2C3F" stroke-width="0.596514" stroke-miterlimit="10"/>
<path d="M654.991 190.85C654.991 190.85 665.399 197.992 676.022 188.267" stroke="#2D2C3F" stroke-width="0.596514" stroke-miterlimit="10"/>
<path d="M653.63 210.248C653.63 210.248 666.592 210.695 672.959 204.771" stroke="#2D2C3F" stroke-width="0.596514" stroke-miterlimit="10"/>
<path d="M650.284 231.863C650.284 231.863 656.283 227.721 663.293 225.395C670.304 223.07 672.704 220.565 676.325 219.628" stroke="#2D2C3F" stroke-width="0.596514" stroke-miterlimit="10"/>
<path d="M682.531 218.025C682.531 218.025 687.159 216.944 694.362 213.997C701.566 211.05 709.124 211.159 709.124 211.159" stroke="#2D2C3F" stroke-width="0.596514" stroke-miterlimit="10"/>
<path d="M686.7 197.213C686.7 197.213 697.958 193.189 706.781 196.512" stroke="#2D2C3F" stroke-width="0.596514" stroke-miterlimit="10"/>
<path d="M685.78 171.22C685.78 171.22 696.307 175.581 704.937 170.06" stroke="#2D2C3F" stroke-width="0.596514" stroke-miterlimit="10"/>
<path d="M718.958 162.261C718.958 162.261 731.005 160.785 735.2 163.907" stroke="#2D2C3F" stroke-width="0.596514" stroke-miterlimit="10"/>
<path d="M716.597 195.199C716.597 195.199 730.154 191.42 736.052 196.525" stroke="#2D2C3F" stroke-width="0.596514" stroke-miterlimit="10"/>
<path d="M745.868 171.456C745.868 171.456 754.831 173.164 763.624 171.456" stroke="#2D2C3F" stroke-width="0.596514" stroke-miterlimit="10"/>
<path d="M744.561 197.213C744.561 197.213 759.024 194.253 767.423 199.017" stroke="#2D2C3F" stroke-width="0.596514" stroke-miterlimit="10"/>
<path d="M801.512 206.79C801.512 206.79 792.864 203.606 787.233 212.771" stroke="#2D2C3F" stroke-width="0.596514" stroke-miterlimit="10"/>
<path d="M724.651 256.31C724.651 256.31 742.521 235.436 775.831 236.763" stroke="#2D2C3F" stroke-width="0.596514" stroke-miterlimit="10"/>
<path d="M794.767 251.488C794.767 251.488 787.761 237.791 778.898 236.933" stroke="#2D2C3F" stroke-width="0.596514" stroke-miterlimit="10"/>
<path d="M712.355 210.984C712.355 210.984 719.317 210.984 722.834 212.009C726.35 213.034 733.466 212.968 738.501 212.009" stroke="#2D2C3F" stroke-width="0.596514" stroke-miterlimit="10"/>
<path d="M741.031 211.493C741.031 211.493 750.572 208.773 758.516 212.119C766.459 215.464 769.406 216.318 770.317 217.338" stroke="#2D2C3F" stroke-width="0.596514" stroke-miterlimit="10"/>
<path d="M645.092 260.987C645.092 260.987 648.298 251.204 678.249 247.688C708.201 244.172 721.587 233.732 721.587 233.732" stroke="#2D2C3F" stroke-width="0.596514" stroke-miterlimit="10"/>
<path d="M699.918 250.977C699.918 250.977 730.435 241.829 743.825 236.702C757.216 231.574 769.919 236.702 769.919 236.702" stroke="#2D2C3F" stroke-width="0.596514" stroke-miterlimit="10"/>
<path d="M861.189 186.522L861.767 186.546L861.78 186.248C861.767 186.546 861.767 186.546 861.768 186.546L861.771 186.546L861.782 186.547L861.828 186.549C861.869 186.551 861.931 186.554 862.012 186.558C862.175 186.567 862.417 186.58 862.734 186.601C863.367 186.641 864.298 186.708 865.487 186.813C867.864 187.024 871.272 187.388 875.39 188.004C883.628 189.237 894.705 191.474 906.067 195.494C928.805 203.539 952.591 218.686 957.175 247.108L957.28 247.76L957.7 247.251L1023.82 167.034L1023.9 166.939L1023.89 166.815C1020.58 133.346 998.27 114.684 976.839 104.401C966.123 99.2588 955.616 96.2059 947.79 94.4383C943.876 93.5544 940.631 92.9917 938.364 92.6497C937.23 92.4788 936.341 92.363 935.734 92.2899C935.431 92.2534 935.198 92.2275 935.041 92.2108C934.963 92.2024 934.903 92.1963 934.863 92.1923L934.817 92.1878L934.806 92.1866L934.803 92.1864C934.802 92.1863 934.801 92.1863 934.774 92.4832L934.801 92.1863L934.639 92.171L934.538 92.3L861.544 186.065L861.189 186.522Z" fill="white" stroke="#181730" stroke-width="0.596514" stroke-miterlimit="10"/>
<path d="M1021.42 154.672C1019.22 146.358 1015.73 139.136 1011.39 132.866L976.905 171.192C948.088 160.864 916.107 156.191 886.498 154.508L863.659 183.838C899.573 184.027 942.172 187.916 979.477 201.288L1021.42 154.662L1021.42 154.672Z" fill="#7A71EF"/>
<path d="M844.157 64.4451L844.121 64.1568L844.151 64.4408L843.919 64.2867L780.897 158.994L780.518 159.564L781.194 159.454L781.145 159.16C781.194 159.454 781.194 159.454 781.195 159.454L781.198 159.453L781.213 159.451L781.274 159.441C781.327 159.432 781.408 159.42 781.514 159.403C781.727 159.369 782.044 159.32 782.462 159.257C783.297 159.132 784.534 158.951 786.138 158.732C789.346 158.294 794.025 157.701 799.903 157.084C811.659 155.851 828.212 154.521 847.401 154.136C885.783 153.365 934.68 156.374 976.804 171.475L976.992 171.543L977.126 171.394L1058.21 81.2645L1058.51 80.9258L1058.08 80.782C1010.49 64.9503 956.995 60.7964 915.412 60.5976C894.618 60.4982 876.797 61.3878 864.174 62.3023C857.863 62.7596 852.851 63.2231 849.416 63.5723C847.698 63.7469 846.375 63.893 845.481 63.9954C845.034 64.0467 844.694 64.087 844.466 64.1145C844.352 64.1283 844.266 64.1388 844.208 64.146L844.143 64.1541L844.133 64.1556L844.127 64.1561L844.122 64.1567C844.121 64.1568 844.121 64.1568 844.157 64.4451Z" fill="white" stroke="#181730" stroke-width="0.596514" stroke-miterlimit="10"/>
<path d="M912.469 115.947C912.469 115.947 863.718 116.221 802.879 126.504L784.52 154.09C854.47 140.11 914.506 139.777 914.506 139.777L973.155 63.8746C966.665 63.2107 960.243 62.6826 953.954 62.266L912.478 115.946L912.469 115.947Z" fill="#7A71EF"/>
<path d="M705.526 150.989L705.129 151.689L705.887 151.416C753.828 134.13 805.474 125.331 845.14 120.855C864.972 118.617 881.807 117.46 893.683 116.862C899.621 116.563 904.319 116.404 907.533 116.32C909.139 116.278 910.375 116.254 911.208 116.241C911.625 116.235 911.941 116.231 912.153 116.229C912.259 116.228 912.339 116.227 912.392 116.226L912.452 116.226L912.467 116.226L912.471 116.226C912.472 116.226 912.472 116.226 912.471 115.928L912.472 116.226L912.618 116.225L912.707 116.11L986.088 21.131L986.438 20.6781L985.866 20.6508L985.852 20.9487C985.866 20.6508 985.866 20.6508 985.865 20.6507L985.861 20.6505L985.844 20.6498L985.78 20.6468C985.723 20.6443 985.638 20.6406 985.525 20.636C985.3 20.6268 984.964 20.6138 984.521 20.5988C983.635 20.5687 982.322 20.5306 980.612 20.4981C977.192 20.4331 972.182 20.3906 965.821 20.4807C953.099 20.661 934.973 21.3714 913.353 23.4921C870.116 27.7333 812.895 37.6161 756.977 60.1857L756.88 60.2247L756.829 60.3154L705.526 150.989Z" fill="white" stroke="#181730" stroke-width="0.596514" stroke-miterlimit="10"/>
<path d="M755.623 101.805C746.772 103.912 738.234 106.144 730.004 108.453L711.013 142.017C722.397 138.597 734.427 135.33 747.103 132.319L798.808 45.9097C794.82 47.1102 790.818 48.3686 786.802 49.6848L755.614 101.805L755.623 101.805Z" fill="#7A71EF"/>
<path d="M588.915 168.712L588.385 169.751L589.349 169.093L589.181 168.847C589.349 169.093 589.349 169.093 589.349 169.093L589.351 169.092L589.36 169.086L589.393 169.063L589.44 169.031C589.465 169.015 589.494 168.995 589.527 168.973C589.647 168.893 589.826 168.773 590.064 168.616C590.541 168.302 591.255 167.837 592.2 167.237C594.092 166.036 596.911 164.293 600.622 162.122C608.044 157.781 619.03 151.733 633.284 144.907C661.791 131.256 703.367 114.497 755.632 102.07L755.754 102.041L755.819 101.933L815.32 2.50081L815.705 1.85651L814.983 2.06063C754.636 19.1088 712.037 33.4879 684.524 43.6058C670.767 48.6648 660.781 52.6585 654.234 55.388C650.96 56.7527 648.546 57.8014 646.949 58.5091C646.151 58.863 645.558 59.1316 645.163 59.3119C644.966 59.4021 644.819 59.4701 644.72 59.5157L644.61 59.5672L644.582 59.5802L644.575 59.5835L644.573 59.5843C644.573 59.5845 644.573 59.5846 644.7 59.8544L644.573 59.5846L644.48 59.6281L644.434 59.7191L588.915 168.712Z" fill="white" stroke="#181730" stroke-width="0.596514" stroke-miterlimit="10"/>
<path d="M653.693 104.159C653.693 104.159 634.533 112.976 610.485 127.057L593.933 159.552C622.685 141.81 647.727 130.289 647.727 130.289L689.192 42.2227C686.507 43.1984 683.952 44.1348 681.525 45.0319L653.693 104.149L653.693 104.159Z" fill="#7A71EF"/>
<path d="M653.664 104.162L653.789 104.433L653.888 104.388L653.934 104.289L696.927 12.9845L697.188 12.43L696.59 12.5667L696.657 12.8574C696.59 12.5667 696.59 12.5668 696.589 12.5669L696.586 12.5677L696.574 12.5705L696.526 12.5816C696.484 12.5914 696.421 12.6062 696.338 12.626C696.172 12.6655 695.925 12.725 695.602 12.805C694.956 12.9651 694.005 13.2072 692.782 13.536C690.337 14.1936 686.806 15.1977 682.46 16.5847C673.767 19.3585 661.811 23.6643 648.755 29.7926C622.883 41.9359 592.655 61.2528 574.968 90.021L574.947 89.7713L574.476 90.8236L529.68 190.87L528.634 193.204L530.189 191.173C547.815 168.139 578.7 146.456 605.209 130.521C618.458 122.557 630.604 116.034 639.438 111.503C643.855 109.237 647.443 107.469 649.927 106.268C651.169 105.668 652.135 105.209 652.79 104.9C653.118 104.746 653.367 104.629 653.535 104.551L653.725 104.462L653.773 104.44L653.785 104.435L653.788 104.433C653.788 104.433 653.789 104.433 653.664 104.162Z" fill="white" stroke="#181730" stroke-width="0.596514" stroke-miterlimit="10"/>
</g>
<defs>
<clipPath id="clip0_30_1358">
<rect width="1459" height="418" fill="white" transform="translate(0.5)"/>
</clipPath>
</defs>
</svg>
