<svg width="86" height="14" viewBox="0 0 86 14" fill="none" xmlns="http://www.w3.org/2000/svg">
<g clip-path="url(#clip0_1_1044)">
<path d="M30.9312 0.272373H33.704V13.6732H30.9312V0.272373Z" fill="#7A71EF"/>
<path d="M47.8203 13.2918C47.0137 12.856 46.3583 12.2023 45.9045 11.3852C45.4508 10.5681 45.1987 9.64202 45.1987 8.66148C45.1987 7.62646 45.4508 6.70039 45.9045 5.93774C46.3583 5.12062 47.0137 4.5214 47.8203 4.03113C48.627 3.59533 49.5344 3.32296 50.5427 3.32296C51.551 3.32296 52.4081 3.54086 53.1643 4.03113C53.9206 4.46693 54.4751 5.12062 54.828 5.99222L52.6602 7.24514C52.156 6.31907 51.4502 5.82879 50.4923 5.82879C49.7865 5.82879 49.1815 6.10117 48.6774 6.59144C48.2236 7.08171 47.9716 7.78988 47.9716 8.66148C47.9716 9.53307 48.2236 10.2412 48.6774 10.7315C49.1311 11.2218 49.7361 11.4942 50.4923 11.4942C51.4502 11.4942 52.156 11.0039 52.6602 10.0778L54.828 11.3307C54.4751 12.1479 53.9206 12.8016 53.1643 13.2374C52.4081 13.6732 51.551 13.9455 50.5427 13.9455C49.5344 14 48.627 13.7821 47.8203 13.2918Z" fill="#7A71EF"/>
<path d="M62.7433 13.3463C62.4912 13.5642 62.1383 13.7276 61.735 13.8366C61.3317 13.9455 60.9284 14 60.4746 14C59.3151 14 58.458 13.6732 57.853 13.0739C57.2481 12.4747 56.9456 11.5486 56.9456 10.2957V6.04669H55.4331V3.75875H56.8951V1.25292H59.668V3.75875H62.0375V6.04669H59.668V10.2412C59.668 10.677 59.7688 11.0039 59.9705 11.2218C60.1721 11.4397 60.4746 11.6031 60.8275 11.6031C61.2813 11.6031 61.6342 11.4942 61.9367 11.2218L62.7433 13.3463Z" fill="#7A71EF"/>
<path d="M19.5376 10.6226C19.1847 10.9494 18.8318 11.2218 18.4789 11.3852C18.0756 11.5486 17.6723 11.6031 17.1681 11.6031C16.4623 11.6031 15.8573 11.4397 15.3532 11.0584C14.849 10.677 14.5465 10.1868 14.4457 9.53307H21.6551C21.7055 9.0428 21.7055 8.77043 21.7055 8.71595C21.7055 7.62646 21.5038 6.70039 21.0501 5.88327C20.5963 5.06615 20.0418 4.46692 19.2855 4.03113C18.5293 3.59533 17.6723 3.37743 16.7648 3.37743C15.8069 3.37743 14.9498 3.59533 14.1432 4.0856C13.387 4.5214 12.782 5.1751 12.3282 5.99222C11.8745 6.80934 11.6729 7.73541 11.6729 8.71595C11.6729 9.75097 11.8745 10.677 12.3282 11.4397C12.782 12.2568 13.4374 12.856 14.244 13.3463C15.0507 13.7821 16.0086 14.0545 17.1177 14.0545C18.731 14.0545 19.9409 13.5642 20.8484 12.6381L19.5376 10.6226ZM15.1515 6.21011C15.5548 5.82879 16.1094 5.61089 16.7144 5.61089C17.3194 5.61089 17.8739 5.82879 18.2772 6.21011C18.6806 6.59144 18.9831 7.13618 19.0335 7.78988H14.3449C14.4961 7.13618 14.7482 6.59144 15.1515 6.21011Z" fill="#7A71EF"/>
<path d="M42.4761 10.6226C42.1232 10.9494 41.7703 11.2218 41.4174 11.3852C41.0141 11.5486 40.6107 11.6031 40.1066 11.6031C39.4008 11.6031 38.7958 11.4397 38.2916 11.0584C37.7875 10.677 37.485 10.1868 37.3842 9.53307H44.5935C44.6439 9.0428 44.6439 8.77043 44.6439 8.71595C44.6439 7.62646 44.4423 6.70039 43.9886 5.88327C43.5348 5.06615 42.9803 4.46692 42.224 4.03113C41.4678 3.59533 40.6107 3.37743 39.7033 3.37743C38.7454 3.37743 37.8883 3.59533 37.0817 4.0856C36.3254 4.5214 35.7205 5.1751 35.2667 5.99222C34.813 6.80934 34.6113 7.73541 34.6113 8.71595C34.6113 9.75097 34.813 10.677 35.2667 11.4397C35.7205 12.2568 36.3759 12.856 37.1825 13.3463C37.9891 13.7821 38.947 14.0545 40.0562 14.0545C41.6695 14.0545 42.8794 13.5642 43.7869 12.6381L42.4761 10.6226ZM38.09 6.21011C38.4933 5.82879 39.0479 5.61089 39.6528 5.61089C40.2578 5.61089 40.8124 5.82879 41.2157 6.21011C41.619 6.59144 41.9215 7.13618 41.9719 7.78988H37.2833C37.3842 7.13618 37.6362 6.59144 38.09 6.21011Z" fill="#7A71EF"/>
<path d="M8.69814 9.36965C9.50479 8.98833 10.1602 8.44358 10.6139 7.73541C11.0677 7.02724 11.2693 6.15564 11.2693 5.1751C11.2693 4.19455 11.0172 3.26848 10.6139 2.56031C10.1602 1.85214 9.5552 1.25292 8.74856 0.871595C7.94192 0.490272 6.98403 0.272373 5.87489 0.272373H0.480469V9.96887L2.9004 13.7276H5.97572L3.55579 9.96887H6.02614L8.44607 13.7276H11.5214L8.69814 9.36965ZM7.68984 6.86381C7.2361 7.29961 6.58071 7.46303 5.72365 7.46303H3.35413V2.83268H5.67323C6.53029 2.83268 7.18569 3.05058 7.63942 3.43191C8.09316 3.81323 8.29482 4.41245 8.29482 5.1751C8.34524 5.88327 8.14358 6.48249 7.68984 6.86381Z" fill="#7A71EF"/>
<path d="M30.2255 4.14008C30.6792 2.17899 29.8222 1.03502 29.0155 0.544747C28.5114 0.217899 27.7551 0 26.9485 0C25.789 0.0544747 24.8815 0.326848 24.2261 1.03502C23.5707 1.74319 23.2682 2.66926 23.2682 3.81323V4.68482H21.8062V6.97276H23.2682V13.6732H26.041V7.02724H28.108V4.7393H25.9906V3.8677C25.9906 2.88716 26.3939 2.34241 27.251 2.39689C27.8056 2.45136 28.3097 2.99611 28.1585 3.59533L30.2255 4.14008Z" fill="#7A71EF"/>
<path d="M85.4804 11.2218V13.7276H75.8511V0.272373H85.2283V2.77821H78.6743V5.71984H82.9092V8.11673H78.6743V11.2218H85.4804Z" fill="#7A71EF"/>
<path d="M73.2802 9.75097C72.4231 10.786 71.4148 11.3307 70.1544 11.3307C69.3982 11.3307 68.6924 11.1673 68.0874 10.786C67.4824 10.4047 67.0287 9.91439 66.6758 9.2607C66.3229 8.607 66.1716 7.84436 66.1716 7.02724C66.1716 6.21011 66.3229 5.44747 66.6758 4.79377C67.0287 4.14008 67.4824 3.6498 68.0874 3.26848C68.6924 2.88716 69.3982 2.72373 70.1544 2.72373C71.4148 2.72373 72.4231 3.26848 73.2802 4.3035L74.7422 2.01556C74.2381 1.47082 73.6331 1.03502 72.9273 0.708169C72.0702 0.272372 71.0619 0.108948 70.0032 0.108948C68.7428 0.108948 67.5833 0.381321 66.5245 0.980543C65.5162 1.57976 64.7096 2.39689 64.1046 3.43191C63.4996 4.46692 63.2476 5.66537 63.2476 7.02724C63.2476 8.33463 63.55 9.53307 64.1046 10.6226C64.7096 11.6576 65.5162 12.5292 66.5245 13.0739C67.5328 13.6731 68.6924 13.9455 69.9528 13.9455C71.0115 13.9455 72.0198 13.7276 72.8769 13.3463C73.5827 13.0195 74.1877 12.5837 74.6918 11.9844L73.2802 9.75097Z" fill="#7A71EF"/>
</g>
<defs>
<clipPath id="clip0_1_1044">
<rect width="85" height="14" fill="white" transform="translate(0.480469)"/>
</clipPath>
</defs>
</svg>
