<svg width="441" height="177" viewBox="0 0 441 177" fill="none" xmlns="http://www.w3.org/2000/svg">
<g clip-path="url(#clip0_1_1844)">
<path d="M4.5 120C6.98528 120 9 105.897 9 88.5C9 71.103 6.98528 57 4.5 57C2.01472 57 0 71.103 0 88.5C0 105.897 2.01472 120 4.5 120Z" fill="#FFDDDD"/>
<path d="M20.6438 149.558C27.0745 149.558 32.2877 122.222 32.2877 88.5C32.2877 54.7786 27.0745 27.4419 20.6438 27.4419C14.2131 27.4419 9 54.7786 9 88.5C9 122.222 14.2131 149.558 20.6438 149.558Z" fill="#FFDDDD"/>
<path d="M55.2877 171.512C68.1491 171.512 78.5753 134.346 78.5753 88.4999C78.5753 42.6539 68.1491 5.48828 55.2877 5.48828C42.4262 5.48828 32 42.6539 32 88.4999C32 134.346 42.4262 171.512 55.2877 171.512Z" fill="#FFDDDD"/>
<path d="M116.685 177C141.084 177 160.863 137.377 160.863 88.5C160.863 39.6228 141.084 0 116.685 0C92.286 0 72.5068 39.6228 72.5068 88.5C72.5068 137.377 92.286 177 116.685 177Z" fill="#FFDDDD"/>
<path d="M218.055 102.907L211.548 93.3023H211.206H204.356V102.907H196.479V68.6046H211.206C214.288 68.6046 217.027 68.9476 219.082 69.9767C221.479 71.0058 223.192 72.3779 224.219 74.436C225.247 76.4942 225.932 78.5523 225.932 80.9535C225.932 83.3546 225.247 85.7558 224.219 87.4709C223.192 89.186 221.137 90.9011 219.082 91.5872L226.616 102.564H218.055V102.907ZM216 76.4941C214.63 75.4651 212.918 74.779 210.521 74.779H204.014V86.7848H210.521C212.918 86.7848 214.63 86.0988 216 85.0697C217.37 84.0407 217.712 82.6686 217.712 80.6104C217.712 78.8953 217.37 77.5232 216 76.4941Z" fill="#FFDDDD"/>
<path d="M257.438 91.5872H237.575C237.918 93.3023 238.945 94.6744 239.973 95.3604C241.342 96.3895 243.055 96.7325 245.11 96.7325C246.479 96.7325 247.849 96.3895 248.877 96.0465C249.904 95.7035 250.932 95.0174 251.959 93.9883L256.068 98.4476C253.671 101.192 249.904 102.564 245.11 102.564C242.027 102.564 239.63 101.878 237.233 100.849C234.836 99.8197 233.123 98.1046 232.096 96.0465C230.726 93.9883 230.384 91.5872 230.384 89.186C230.384 86.4418 231.068 84.3837 232.096 82.3255C233.466 80.2674 234.836 78.5523 237.233 77.5232C239.63 76.4942 241.685 75.8081 244.425 75.8081C247.164 75.8081 249.219 76.4942 251.274 77.5232C253.329 78.5523 255.041 80.2674 256.068 82.3255C257.096 84.3837 257.781 86.7848 257.781 89.529C257.438 89.8721 257.438 90.5581 257.438 91.5872ZM239.288 83.3546C238.26 84.3837 237.233 85.7558 237.233 87.4709H250.247C249.904 85.7558 249.219 84.3837 248.192 83.3546C247.164 82.3255 245.452 81.9825 243.74 81.9825C242.027 81.6395 240.658 82.3255 239.288 83.3546Z" fill="#FFDDDD"/>
<path d="M270.795 76.8372H277.644V82.6686H271.137V102.907H263.603V83.0116H259.493V77.1802H263.603V76.1512C263.603 73.064 264.63 70.6628 266.342 68.9477C268.055 67.2326 270.795 66.2035 273.877 66.2035C274.904 66.2035 276.274 66.2035 277.301 66.5465C278.329 66.8895 279.356 67.2326 280.041 67.5756L277.644 73.064C276.616 72.3779 275.589 72.0349 274.562 72.0349C272.164 72.0349 271.137 73.407 271.137 75.8081V76.8372H270.795ZM281.411 66.2035H288.945V102.907H281.411V66.2035Z" fill="#FFDDDD"/>
<path d="M321.822 91.5872H301.959C302.301 93.3023 303.329 94.6744 304.356 95.3604C305.726 96.3895 307.438 96.7325 309.493 96.7325C310.863 96.7325 312.233 96.3895 313.26 96.0465C314.288 95.7035 315.315 95.0174 316.342 93.9883L320.452 98.4476C318.055 101.192 314.288 102.564 309.493 102.564C306.411 102.564 304.014 101.878 301.616 100.849C299.219 99.8197 297.507 98.1046 296.479 96.0465C295.11 93.9883 294.767 91.5872 294.767 89.186C294.767 86.4418 295.452 84.3837 296.479 82.3255C297.849 80.2674 299.219 78.5523 301.616 77.5232C304.014 76.4942 306.068 75.8081 308.808 75.8081C311.548 75.8081 313.603 76.4942 315.657 77.5232C317.712 78.5523 319.425 80.2674 320.452 82.3255C321.479 84.3837 322.164 86.7848 322.164 89.529C322.164 89.8721 322.164 90.5581 321.822 91.5872ZM304.014 83.3546C302.986 84.3837 301.959 85.7558 301.959 87.4709H314.973C314.63 85.7558 313.945 84.3837 312.918 83.3546C311.89 82.3255 310.178 81.9825 308.466 81.9825C306.753 81.6395 305.384 82.3255 304.014 83.3546Z" fill="#FFDDDD"/>
<path d="M332.438 101.535C330.041 100.506 328.329 98.7907 327.301 96.7325C325.932 94.6744 325.247 92.2732 325.247 89.8721C325.247 87.1279 325.932 85.0697 327.301 83.0116C328.671 80.9534 330.384 79.2383 332.438 78.2093C334.836 77.1802 337.233 76.4941 339.973 76.4941C342.712 76.4941 345.11 77.1802 347.164 78.2093C349.219 79.2383 350.589 80.9534 351.616 83.3546L345.795 86.4418C344.425 84.0407 342.37 82.6686 339.973 82.6686C337.918 82.6686 336.205 83.3546 335.178 84.7267C333.808 86.0988 333.123 87.8139 333.123 90.2151C333.123 92.6162 333.808 94.3314 335.178 95.7034C336.548 97.0755 338.26 97.7616 339.973 97.7616C342.712 97.7616 344.425 96.3895 345.795 93.9883L351.616 97.0755C350.589 99.1337 349.219 100.849 347.164 101.878C345.11 102.907 342.712 103.593 339.973 103.593C337.233 103.25 334.493 102.564 332.438 101.535Z" fill="#FFDDDD"/>
<path d="M373.534 101.535C372.849 102.221 371.822 102.564 370.795 102.907C369.767 103.25 368.397 103.25 367.37 103.25C364.288 103.25 361.891 102.564 360.178 100.849C358.466 99.1338 357.438 96.7326 357.438 93.6454V82.6687H353.329V76.8373H357.438V70.3198H364.973V76.8373H371.48V82.6687H364.973V93.3024C364.973 94.3315 365.315 95.3605 366 96.0466C366.685 96.7326 367.37 97.0756 368.397 97.0756C369.767 97.0756 370.795 96.7326 371.48 96.0466L373.534 101.535Z" fill="#FFDDDD"/>
<path d="M385.521 101.192C382.781 99.8197 380.384 97.4186 379.014 95.0174C377.644 92.6163 376.616 89.186 376.616 85.7558C376.616 82.3256 377.301 79.2383 379.014 76.4942C380.726 73.75 382.781 71.6918 385.521 70.3197C388.26 68.9477 391.685 67.9186 395.11 67.9186C398.192 67.9186 400.932 68.6046 403.329 69.6337C405.726 70.6628 407.781 72.0349 409.493 74.093L404.356 78.8953C401.959 76.1511 399.219 74.779 395.795 74.779C393.74 74.779 391.685 75.1221 389.973 76.1511C388.26 77.1802 386.89 78.5523 386.205 79.9244C385.178 81.6395 384.836 83.3546 384.836 85.7558C384.836 87.8139 385.178 89.8721 386.205 91.5872C387.233 93.3023 388.603 94.6744 389.973 95.3604C391.685 96.3895 393.397 96.7325 395.795 96.7325C399.219 96.7325 401.959 95.3604 404.356 92.6163L409.493 97.4186C407.781 99.4767 405.726 100.849 403.329 101.878C400.932 102.907 398.192 103.593 395.11 103.593C391.342 103.25 388.26 102.564 385.521 101.192Z" fill="#FFDDDD"/>
<path d="M441 96.3895V102.907H414.288V68.6046H440.315V75.1221H422.164V82.3255H438.26V88.5H422.164V96.3895H441Z" fill="#FFDDDD"/>
</g>
<defs>
<clipPath id="clip0_1_1844">
<rect width="441" height="177" fill="white"/>
</clipPath>
</defs>
</svg>
