<svg width="235" height="233" viewBox="0 0 235 233" fill="none" xmlns="http://www.w3.org/2000/svg">
<path d="M0 150.253L234.844 150.253" stroke="black" stroke-width="0.5" stroke-dasharray="2 4"/>
<path d="M182.665 142.054C194.346 136.942 203.837 129.639 210.407 120.146C216.978 110.652 219.898 98.968 219.898 85.8232C219.898 72.6783 216.978 60.9939 210.407 50.7701C203.837 41.2766 195.076 33.2436 183.395 28.1317C171.713 23.0198 157.842 20.0987 141.78 20.0987H63.6625V150.087L98.706 200.476H143.241L108.197 150.087H143.971L179.014 200.476H223.549L182.665 142.054ZM168.063 108.462C161.492 114.304 152.001 116.495 139.59 116.495H105.277V53.6912H138.86C151.271 53.6912 160.762 56.6123 167.333 61.7242C173.904 66.8361 176.824 74.8691 176.824 85.0929C177.554 95.3167 174.634 103.35 168.063 108.462Z" fill="#F1F1F1"/>
<mask id="mask0_1_625" style="mask-type:alpha" maskUnits="userSpaceOnUse" x="63" y="20" width="161" height="181">
<path d="M182.665 142.054C194.346 136.942 203.837 129.639 210.407 120.146C216.978 110.652 219.898 98.968 219.898 85.8232C219.898 72.6783 216.978 60.9939 210.407 50.7701C203.837 41.2766 195.076 33.2436 183.395 28.1317C171.713 23.0198 157.842 20.0987 141.78 20.0987H63.6625V150.087L98.706 200.476H143.241L108.197 150.087H143.971L179.014 200.476H223.549L182.665 142.054ZM168.063 108.462C161.492 114.304 152.001 116.495 139.59 116.495L108.226 116.495V53.6912L138.86 53.6912C151.271 53.6912 160.762 56.6123 167.333 61.7242C173.904 66.8361 176.824 74.8691 176.824 85.0929C177.554 95.3167 174.634 103.35 168.063 108.462Z" fill="#FFF8F8"/>
</mask>
<g mask="url(#mask0_1_625)">
<rect x="55.174" y="150.253" width="88.4201" height="73.5655" fill="#7A71EF"/>
<rect x="19.0985" y="12.3178" width="89.1275" height="137.935" fill="#53F7DF"/>
</g>
<path d="M46.2285 1L46.2285 0.75L45.7285 0.75L45.7285 1L46.2285 1ZM45.8017 148.308C45.8994 148.405 46.0577 148.405 46.1553 148.308L47.7463 146.717C47.8439 146.619 47.8439 146.461 47.7463 146.363C47.6487 146.266 47.4904 146.266 47.3927 146.363L45.9785 147.777L44.5643 146.363C44.4667 146.266 44.3084 146.266 44.2108 146.363C44.1131 146.461 44.1131 146.619 44.2108 146.717L45.8017 148.308ZM45.7285 1L45.7285 1.98087L46.2285 1.98087L46.2285 1L45.7285 1ZM45.7285 5.90437L45.7285 7.86612L46.2285 7.86612L46.2285 5.90437L45.7285 5.90437ZM45.7285 11.7896L45.7285 13.7514L46.2285 13.7514L46.2285 11.7896L45.7285 11.7896ZM45.7285 17.6749L45.7285 19.6366L46.2285 19.6366L46.2285 17.6749L45.7285 17.6749ZM45.7285 23.5601L45.7285 25.5218L46.2285 25.5218L46.2285 23.5601L45.7285 23.5601ZM45.7285 29.4453L45.7285 31.4071L46.2285 31.4071L46.2285 29.4453L45.7285 29.4453ZM45.7285 35.3306L45.7285 37.2923L46.2285 37.2923L46.2285 35.3306L45.7285 35.3306ZM45.7285 41.2158L45.7285 43.1776L46.2285 43.1776L46.2285 41.2158L45.7285 41.2158ZM45.7285 47.1011L45.7285 49.0628L46.2285 49.0628L46.2285 47.1011L45.7285 47.1011ZM45.7285 52.9863L45.7285 54.9481L46.2285 54.9481L46.2285 52.9863L45.7285 52.9863ZM45.7285 58.8716L45.7285 60.8333L46.2285 60.8333L46.2285 58.8716L45.7285 58.8716ZM45.7285 64.7568L45.7285 66.7185L46.2285 66.7185L46.2285 64.7568L45.7285 64.7568ZM45.7285 70.642L45.7285 72.6038L46.2285 72.6038L46.2285 70.642L45.7285 70.642ZM45.7285 76.5273L45.7285 78.489L46.2285 78.489L46.2285 76.5273L45.7285 76.5273ZM45.7285 82.4125L45.7285 84.3743L46.2285 84.3743L46.2285 82.4125L45.7285 82.4125ZM45.7285 88.2978L45.7285 90.2595L46.2285 90.2595L46.2285 88.2978L45.7285 88.2978ZM45.7285 94.183L45.7285 96.1447L46.2285 96.1447L46.2285 94.183L45.7285 94.183ZM45.7285 100.068L45.7285 102.03L46.2285 102.03L46.2285 100.068L45.7285 100.068ZM45.7285 105.953L45.7285 107.915L46.2285 107.915L46.2285 105.953L45.7285 105.953ZM45.7285 111.839L45.7285 113.8L46.2285 113.8L46.2285 111.839L45.7285 111.839ZM45.7285 117.724L45.7285 119.686L46.2285 119.686L46.2285 117.724L45.7285 117.724ZM45.7285 123.609L45.7285 125.571L46.2285 125.571L46.2285 123.609L45.7285 123.609ZM45.7285 129.494L45.7285 131.456L46.2285 131.456L46.2285 129.494L45.7285 129.494ZM45.7285 135.38L45.7285 137.341L46.2285 137.341L46.2285 135.38L45.7285 135.38ZM45.7285 141.265L45.7285 143.227L46.2285 143.227L46.2285 141.265L45.7285 141.265ZM45.7285 147.15L45.7285 148.131L46.2285 148.131L46.2285 147.15L45.7285 147.15Z" fill="black"/>
<path d="M99.3347 232.906C99.4701 232.933 99.6019 232.846 99.6293 232.71L100.075 230.505C100.102 230.369 100.015 230.238 99.8796 230.21C99.7443 230.183 99.6124 230.27 99.585 230.406L99.1887 232.366L97.2284 231.97C97.0931 231.942 96.9612 232.03 96.9338 232.165C96.9065 232.301 96.994 232.433 97.1293 232.46L99.3347 232.906ZM46.8313 153.928L47.3765 154.75L47.7931 154.473L47.2479 153.652L46.8313 153.928ZM49.5575 158.036L50.6481 159.679L51.0647 159.403L49.9741 157.76L49.5575 158.036ZM52.8291 162.965L53.9196 164.609L54.3362 164.332L53.2457 162.689L52.8291 162.965ZM56.1006 167.895L57.1911 169.538L57.6077 169.262L56.5172 167.618L56.1006 167.895ZM59.3722 172.824L60.4627 174.467L60.8793 174.191L59.7888 172.548L59.3722 172.824ZM62.6437 177.754L63.7342 179.397L64.1508 179.12L63.0603 177.477L62.6437 177.754ZM65.9153 182.683L67.0058 184.326L67.4224 184.05L66.3319 182.407L65.9153 182.683ZM69.1868 187.613L70.2773 189.256L70.6939 188.979L69.6034 187.336L69.1868 187.613ZM72.4583 192.542L73.5489 194.185L73.9655 193.909L72.8749 192.265L72.4583 192.542ZM75.7299 197.471L76.8204 199.115L77.237 198.838L76.1465 197.195L75.7299 197.471ZM79.0014 202.401L80.0919 204.044L80.5085 203.767L79.418 202.124L79.0014 202.401ZM82.273 207.33L83.3635 208.973L83.7801 208.697L82.6896 207.054L82.273 207.33ZM85.5445 212.26L86.635 213.903L87.0516 213.626L85.9611 211.983L85.5445 212.26ZM88.8161 217.189L89.9066 218.832L90.3232 218.556L89.2327 216.913L88.8161 217.189ZM92.0876 222.119L93.1781 223.762L93.5947 223.485L92.5042 221.842L92.0876 222.119ZM95.3592 227.048L96.4497 228.691L96.8663 228.415L95.7758 226.771L95.3592 227.048ZM98.6307 231.977L99.176 232.799L99.5926 232.522L99.0473 231.701L98.6307 231.977Z" fill="black"/>
</svg>
