<svg width="1316" height="1448" viewBox="0 0 1316 1448" fill="none" xmlns="http://www.w3.org/2000/svg">
<path d="M36.8136 981.695C57.1451 981.695 73.6271 866.321 73.6271 724C73.6271 581.679 57.1451 466.305 36.8136 466.305C16.482 466.305 0 581.679 0 724C0 866.321 16.482 981.695 36.8136 981.695Z" fill="#FF5555"/>
<path d="M168.883 1223.5C221.491 1223.5 264.139 999.869 264.139 724C264.139 448.132 221.491 224.496 168.883 224.496C116.275 224.496 73.6271 448.132 73.6271 724C73.6271 999.869 116.275 1223.5 168.883 1223.5Z" fill="#FF5555"/>
<path d="M452.297 1403.1C557.514 1403.1 642.808 1099.06 642.808 723.999C642.808 348.942 557.514 44.8985 452.297 44.8985C347.08 44.8985 261.785 348.942 261.785 723.999C261.785 1099.06 347.08 1403.1 452.297 1403.1Z" fill="#FF5555"/>
<path d="M954.575 1448C1154.18 1448 1315.99 1123.85 1315.99 724C1315.99 324.146 1154.18 0 954.575 0C754.973 0 593.163 324.146 593.163 724C593.163 1123.85 754.973 1448 954.575 1448Z" fill="#FF5555"/>
</svg>
