<svg width="235" height="269" viewBox="0 0 235 269" fill="none" xmlns="http://www.w3.org/2000/svg">
<rect y="169" width="235" height="100" fill="#F1F1F1"/>
<path d="M0 169L235 169" stroke="black" stroke-width="0.5" stroke-dasharray="2 4"/>
<path d="M78 169.416L122.917 234H180L135.083 169.416H78Z" fill="#C6C6C6"/>
<path d="M135 35H78V169H135V35Z" fill="#D5D5D5"/>
<path d="M108.25 20L108.25 19.75L107.75 19.75L107.75 20L108.25 20ZM107.823 167.177C107.921 167.274 108.079 167.274 108.177 167.177L109.768 165.586C109.865 165.488 109.865 165.33 109.768 165.232C109.67 165.135 109.512 165.135 109.414 165.232L108 166.646L106.586 165.232C106.488 165.135 106.33 165.135 106.232 165.232C106.135 165.33 106.135 165.488 106.232 165.586L107.823 167.177ZM107.75 20L107.75 20.98L108.25 20.98L108.25 20L107.75 20ZM107.75 24.9L107.75 26.86L108.25 26.86L108.25 24.9L107.75 24.9ZM107.75 30.78L107.75 32.74L108.25 32.74L108.25 30.78L107.75 30.78ZM107.75 36.66L107.75 38.62L108.25 38.62L108.25 36.66L107.75 36.66ZM107.75 42.54L107.75 44.5L108.25 44.5L108.25 42.54L107.75 42.54ZM107.75 48.42L107.75 50.38L108.25 50.38L108.25 48.42L107.75 48.42ZM107.75 54.3L107.75 56.26L108.25 56.26L108.25 54.3L107.75 54.3ZM107.75 60.18L107.75 62.14L108.25 62.14L108.25 60.18L107.75 60.18ZM107.75 66.06L107.75 68.02L108.25 68.02L108.25 66.06L107.75 66.06ZM107.75 71.94L107.75 73.9L108.25 73.9L108.25 71.94L107.75 71.94ZM107.75 77.82L107.75 79.78L108.25 79.78L108.25 77.82L107.75 77.82ZM107.75 83.7L107.75 85.66L108.25 85.66L108.25 83.7L107.75 83.7ZM107.75 89.58L107.75 91.54L108.25 91.54L108.25 89.58L107.75 89.58ZM107.75 95.46L107.75 97.42L108.25 97.42L108.25 95.46L107.75 95.46ZM107.75 101.34L107.75 103.3L108.25 103.3L108.25 101.34L107.75 101.34ZM107.75 107.22L107.75 109.18L108.25 109.18L108.25 107.22L107.75 107.22ZM107.75 113.1L107.75 115.06L108.25 115.06L108.25 113.1L107.75 113.1ZM107.75 118.98L107.75 120.94L108.25 120.94L108.25 118.98L107.75 118.98ZM107.75 124.86L107.75 126.82L108.25 126.82L108.25 124.86L107.75 124.86ZM107.75 130.74L107.75 132.7L108.25 132.7L108.25 130.74L107.75 130.74ZM107.75 136.62L107.75 138.58L108.25 138.58L108.25 136.62L107.75 136.62ZM107.75 142.5L107.75 144.46L108.25 144.46L108.25 142.5L107.75 142.5ZM107.75 148.38L107.75 150.34L108.25 150.34L108.25 148.38L107.75 148.38ZM107.75 154.26L107.75 156.22L108.25 156.22L108.25 154.26L107.75 154.26ZM107.75 160.14L107.75 162.1L108.25 162.1L108.25 160.14L107.75 160.14ZM107.75 166.02L107.75 167L108.25 167L108.25 166.02L107.75 166.02Z" fill="black"/>
<path d="M161.952 251.245C162.087 251.272 162.219 251.184 162.245 251.048L162.68 248.841C162.707 248.705 162.619 248.574 162.483 248.547C162.348 248.52 162.216 248.609 162.19 248.744L161.803 250.706L159.841 250.32C159.705 250.293 159.574 250.381 159.547 250.517C159.52 250.652 159.609 250.784 159.744 250.81L161.952 251.245ZM108.792 172.139L109.344 172.962L109.76 172.684L109.208 171.861L108.792 172.139ZM111.553 176.254L112.657 177.9L113.072 177.621L111.968 175.975L111.553 176.254ZM114.865 181.191L115.969 182.837L116.385 182.559L115.281 180.913L114.865 181.191ZM118.178 186.129L119.282 187.775L119.697 187.496L118.593 185.85L118.178 186.129ZM121.49 191.066L122.594 192.712L123.01 192.434L121.906 190.788L121.49 191.066ZM124.803 196.004L125.907 197.65L126.322 197.371L125.218 195.725L124.803 196.004ZM128.115 200.941L129.219 202.587L129.635 202.309L128.531 200.663L128.115 200.941ZM131.428 205.879L132.532 207.525L132.947 207.246L131.843 205.6L131.428 205.879ZM134.74 210.816L135.844 212.462L136.26 212.184L135.156 210.538L134.74 210.816ZM138.053 215.754L139.157 217.4L139.572 217.121L138.468 215.475L138.053 215.754ZM141.365 220.691L142.469 222.337L142.885 222.059L141.781 220.413L141.365 220.691ZM144.678 225.629L145.782 227.275L146.197 226.996L145.093 225.35L144.678 225.629ZM147.99 230.566L149.094 232.212L149.51 231.934L148.406 230.288L147.99 230.566ZM151.303 235.504L152.407 237.15L152.822 236.871L151.718 235.225L151.303 235.504ZM154.615 240.441L155.719 242.087L156.135 241.809L155.031 240.163L154.615 240.441ZM157.928 245.379L159.032 247.025L159.447 246.746L158.343 245.1L157.928 245.379ZM161.24 250.316L161.792 251.139L162.208 250.861L161.656 250.038L161.24 250.316Z" fill="black"/>
</svg>
