<svg width="282" height="282" viewBox="0 0 282 282" fill="none" xmlns="http://www.w3.org/2000/svg">
<circle cx="141" cy="141" r="141" fill="#DEFDFF"/>
<path d="M67.9895 126.611C67.4431 126.53 66.9347 126.907 66.854 127.454C66.7733 128 67.1507 128.509 67.6971 128.589L67.9895 126.611ZM210.156 74.9782C210.144 74.426 209.687 73.9882 209.135 74.0002L200.137 74.1965C199.585 74.2085 199.147 74.6659 199.159 75.218C199.171 75.7702 199.628 76.208 200.181 76.196L208.179 76.0216L208.353 84.0197C208.365 84.5718 208.823 85.0097 209.375 84.9976C209.927 84.9856 210.365 84.5282 210.353 83.9761L210.156 74.9782ZM67.6971 128.589C94.4878 132.548 160.295 127.486 209.879 75.6915L208.434 74.3085C159.413 125.515 94.3221 130.502 67.9895 126.611L67.6971 128.589Z" fill="#0A6D70"/>
<path d="M67.5975 154.373C67.0512 154.454 66.5426 154.077 66.4615 153.531C66.3804 152.984 66.7576 152.476 67.3039 152.395L67.5975 154.373ZM210.549 206.524C210.536 207.076 210.077 207.513 209.525 207.5L200.528 207.285C199.976 207.271 199.539 206.813 199.552 206.261C199.565 205.709 200.024 205.272 200.576 205.285L208.573 205.476L208.765 197.479C208.778 196.927 209.236 196.49 209.788 196.503C210.34 196.516 210.777 196.974 210.764 197.526L210.549 206.524ZM67.3039 152.395C94.2436 148.396 160.415 153.509 210.273 205.81L208.825 207.19C159.53 155.479 94.0762 150.443 67.5975 154.373L67.3039 152.395Z" fill="#0A6D70"/>
</svg>
