<svg width="375" height="64" viewBox="0 0 375 64" fill="none" xmlns="http://www.w3.org/2000/svg">
<path d="M356.375 31C356.375 31.2984 356.256 31.5845 356.045 31.7955C355.835 32.0065 355.548 32.125 355.25 32.125H338.75C338.452 32.125 338.165 32.0065 337.955 31.7955C337.744 31.5845 337.625 31.2984 337.625 31C337.625 30.7016 337.744 30.4155 337.955 30.2045C338.165 29.9935 338.452 29.875 338.75 29.875H355.25C355.548 29.875 355.835 29.9935 356.045 30.2045C356.256 30.4155 356.375 30.7016 356.375 31ZM338.75 26.125H355.25C355.548 26.125 355.835 26.0065 356.045 25.7955C356.256 25.5845 356.375 25.2984 356.375 25C356.375 24.7016 356.256 24.4155 356.045 24.2045C355.835 23.9935 355.548 23.875 355.25 23.875H338.75C338.452 23.875 338.165 23.9935 337.955 24.2045C337.744 24.4155 337.625 24.7016 337.625 25C337.625 25.2984 337.744 25.5845 337.955 25.7955C338.165 26.0065 338.452 26.125 338.75 26.125ZM355.25 35.875H338.75C338.452 35.875 338.165 35.9935 337.955 36.2045C337.744 36.4155 337.625 36.7016 337.625 37C337.625 37.2984 337.744 37.5845 337.955 37.7955C338.165 38.0065 338.452 38.125 338.75 38.125H355.25C355.548 38.125 355.835 38.0065 356.045 37.7955C356.256 37.5845 356.375 37.2984 356.375 37C356.375 36.7016 356.256 36.4155 356.045 36.2045C355.835 35.9935 355.548 35.875 355.25 35.875Z" fill="#5E5C78"/>
<path d="M37.3465 35.9934C39.0492 35.2392 40.4327 34.1617 41.3905 32.7611C42.3483 31.3604 42.7739 29.6364 42.7739 27.697C42.7739 25.7576 42.2418 23.926 41.3905 22.5253C40.4327 21.1246 39.1557 19.9394 37.4529 19.1852C35.7502 18.431 33.7282 18 31.387 18H20V37.1786L25.1082 44.613H31.5998L26.4916 37.1786H31.7062L36.8144 44.613H43.306L37.3465 35.9934ZM35.2181 31.0371C34.2603 31.8991 32.8769 32.2223 31.0677 32.2223H26.066V23.064H30.9613C32.7704 23.064 34.1539 23.495 35.1117 24.2492C36.0695 25.0034 36.4951 26.1886 36.4951 27.697C36.6016 29.0977 36.1759 30.2829 35.2181 31.0371Z" fill="#7A71EF"/>
</svg>
