<svg width="400" height="958" viewBox="0 0 400 958" fill="none" xmlns="http://www.w3.org/2000/svg">
<g opacity="0.5">
<circle cx="2" cy="2" r="2" fill="#DAD8ED"/>
<circle cx="38" cy="2" r="2" fill="#DAD8ED"/>
<circle cx="74" cy="2" r="2" fill="#DAD8ED"/>
<circle cx="110" cy="2" r="2" fill="#DAD8ED"/>
<circle cx="146" cy="2" r="2" fill="#DAD8ED"/>
<circle cx="182" cy="2" r="2" fill="#DAD8ED"/>
<circle cx="218" cy="2" r="2" fill="#DAD8ED"/>
<circle cx="254" cy="2" r="2" fill="#DAD8ED"/>
<circle cx="290" cy="2" r="2" fill="#DAD8ED"/>
<circle cx="326" cy="2" r="2" fill="#DAD8ED"/>
<circle cx="362" cy="2" r="2" fill="#DAD8ED"/>
<circle cx="398" cy="2" r="2" fill="#DAD8ED"/>
<circle cx="2" cy="38" r="2" fill="#DAD8ED"/>
<circle cx="38" cy="38" r="2" fill="#DAD8ED"/>
<circle cx="74" cy="38" r="2" fill="#DAD8ED"/>
<circle cx="110" cy="38" r="2" fill="#DAD8ED"/>
<circle cx="146" cy="38" r="2" fill="#DAD8ED"/>
<circle cx="182" cy="38" r="2" fill="#DAD8ED"/>
<circle cx="218" cy="38" r="2" fill="#DAD8ED"/>
<circle cx="254" cy="38" r="2" fill="#DAD8ED"/>
<circle cx="290" cy="38" r="2" fill="#DAD8ED"/>
<circle cx="326" cy="38" r="2" fill="#DAD8ED"/>
<circle cx="362" cy="38" r="2" fill="#DAD8ED"/>
<circle cx="398" cy="38" r="2" fill="#DAD8ED"/>
<circle cx="2" cy="74" r="2" fill="#DAD8ED"/>
<circle cx="38" cy="74" r="2" fill="#DAD8ED"/>
<circle cx="74" cy="74" r="2" fill="#DAD8ED"/>
<circle cx="110" cy="74" r="2" fill="#DAD8ED"/>
<circle cx="146" cy="74" r="2" fill="#DAD8ED"/>
<circle cx="182" cy="74" r="2" fill="#DAD8ED"/>
<circle cx="218" cy="74" r="2" fill="#DAD8ED"/>
<circle cx="254" cy="74" r="2" fill="#DAD8ED"/>
<circle cx="290" cy="74" r="2" fill="#DAD8ED"/>
<circle cx="326" cy="74" r="2" fill="#DAD8ED"/>
<circle cx="362" cy="74" r="2" fill="#DAD8ED"/>
<circle cx="398" cy="74" r="2" fill="#DAD8ED"/>
<circle cx="2" cy="110" r="2" fill="#DAD8ED"/>
<circle cx="38" cy="110" r="2" fill="#DAD8ED"/>
<circle cx="74" cy="110" r="2" fill="#DAD8ED"/>
<circle cx="110" cy="110" r="2" fill="#DAD8ED"/>
<circle cx="146" cy="110" r="2" fill="#DAD8ED"/>
<circle cx="182" cy="110" r="2" fill="#DAD8ED"/>
<circle cx="218" cy="110" r="2" fill="#DAD8ED"/>
<circle cx="254" cy="110" r="2" fill="#DAD8ED"/>
<circle cx="290" cy="110" r="2" fill="#DAD8ED"/>
<circle cx="326" cy="110" r="2" fill="#DAD8ED"/>
<circle cx="362" cy="110" r="2" fill="#DAD8ED"/>
<circle cx="398" cy="110" r="2" fill="#DAD8ED"/>
<circle cx="2" cy="146" r="2" fill="#DAD8ED"/>
<circle cx="38" cy="146" r="2" fill="#DAD8ED"/>
<circle cx="74" cy="146" r="2" fill="#DAD8ED"/>
<circle cx="110" cy="146" r="2" fill="#DAD8ED"/>
<circle cx="146" cy="146" r="2" fill="#DAD8ED"/>
<circle cx="182" cy="146" r="2" fill="#DAD8ED"/>
<circle cx="218" cy="146" r="2" fill="#DAD8ED"/>
<circle cx="254" cy="146" r="2" fill="#DAD8ED"/>
<circle cx="290" cy="146" r="2" fill="#DAD8ED"/>
<circle cx="326" cy="146" r="2" fill="#DAD8ED"/>
<circle cx="362" cy="146" r="2" fill="#DAD8ED"/>
<circle cx="398" cy="146" r="2" fill="#DAD8ED"/>
<circle cx="2" cy="182" r="2" fill="#DAD8ED"/>
<circle cx="38" cy="182" r="2" fill="#DAD8ED"/>
<circle cx="74" cy="182" r="2" fill="#DAD8ED"/>
<circle cx="110" cy="182" r="2" fill="#DAD8ED"/>
<circle cx="146" cy="182" r="2" fill="#DAD8ED"/>
<circle cx="182" cy="182" r="2" fill="#DAD8ED"/>
<circle cx="218" cy="182" r="2" fill="#DAD8ED"/>
<circle cx="254" cy="182" r="2" fill="#DAD8ED"/>
<circle cx="290" cy="182" r="2" fill="#DAD8ED"/>
<circle cx="326" cy="182" r="2" fill="#DAD8ED"/>
<circle cx="362" cy="182" r="2" fill="#DAD8ED"/>
<circle cx="398" cy="182" r="2" fill="#DAD8ED"/>
<circle cx="2" cy="218" r="2" fill="#DAD8ED"/>
<circle cx="38" cy="218" r="2" fill="#DAD8ED"/>
<circle cx="74" cy="218" r="2" fill="#DAD8ED"/>
<circle cx="110" cy="218" r="2" fill="#DAD8ED"/>
<circle cx="146" cy="218" r="2" fill="#DAD8ED"/>
<circle cx="182" cy="218" r="2" fill="#DAD8ED"/>
<circle cx="218" cy="218" r="2" fill="#DAD8ED"/>
<circle cx="254" cy="218" r="2" fill="#DAD8ED"/>
<circle cx="290" cy="218" r="2" fill="#DAD8ED"/>
<circle cx="326" cy="218" r="2" fill="#DAD8ED"/>
<circle cx="362" cy="218" r="2" fill="#DAD8ED"/>
<circle cx="398" cy="218" r="2" fill="#DAD8ED"/>
<circle cx="2" cy="254" r="2" fill="#DAD8ED"/>
<circle cx="38" cy="254" r="2" fill="#DAD8ED"/>
<circle cx="74" cy="254" r="2" fill="#DAD8ED"/>
<circle cx="110" cy="254" r="2" fill="#DAD8ED"/>
<circle cx="146" cy="254" r="2" fill="#DAD8ED"/>
<circle cx="182" cy="254" r="2" fill="#DAD8ED"/>
<circle cx="218" cy="254" r="2" fill="#DAD8ED"/>
<circle cx="254" cy="254" r="2" fill="#DAD8ED"/>
<circle cx="290" cy="254" r="2" fill="#DAD8ED"/>
<circle cx="326" cy="254" r="2" fill="#DAD8ED"/>
<circle cx="362" cy="254" r="2" fill="#DAD8ED"/>
<circle cx="398" cy="254" r="2" fill="#DAD8ED"/>
<circle cx="2" cy="290" r="2" fill="#DAD8ED"/>
<circle cx="38" cy="290" r="2" fill="#DAD8ED"/>
<circle cx="74" cy="290" r="2" fill="#DAD8ED"/>
<circle cx="110" cy="290" r="2" fill="#DAD8ED"/>
<circle cx="146" cy="290" r="2" fill="#DAD8ED"/>
<circle cx="182" cy="290" r="2" fill="#DAD8ED"/>
<circle cx="218" cy="290" r="2" fill="#DAD8ED"/>
<circle cx="254" cy="290" r="2" fill="#DAD8ED"/>
<circle cx="290" cy="290" r="2" fill="#DAD8ED"/>
<circle cx="326" cy="290" r="2" fill="#DAD8ED"/>
<circle cx="362" cy="290" r="2" fill="#DAD8ED"/>
<circle cx="398" cy="290" r="2" fill="#DAD8ED"/>
<circle cx="2" cy="326" r="2" fill="#DAD8ED"/>
<circle cx="38" cy="326" r="2" fill="#DAD8ED"/>
<circle cx="74" cy="326" r="2" fill="#DAD8ED"/>
<circle cx="110" cy="326" r="2" fill="#DAD8ED"/>
<circle cx="146" cy="326" r="2" fill="#DAD8ED"/>
<circle cx="182" cy="326" r="2" fill="#DAD8ED"/>
<circle cx="218" cy="326" r="2" fill="#DAD8ED"/>
<circle cx="254" cy="326" r="2" fill="#DAD8ED"/>
<circle cx="290" cy="326" r="2" fill="#DAD8ED"/>
<circle cx="326" cy="326" r="2" fill="#DAD8ED"/>
<circle cx="362" cy="326" r="2" fill="#DAD8ED"/>
<circle cx="398" cy="326" r="2" fill="#DAD8ED"/>
<circle cx="2" cy="362" r="2" fill="#DAD8ED"/>
<circle cx="38" cy="362" r="2" fill="#DAD8ED"/>
<circle cx="74" cy="362" r="2" fill="#DAD8ED"/>
<circle cx="110" cy="362" r="2" fill="#DAD8ED"/>
<circle cx="146" cy="362" r="2" fill="#DAD8ED"/>
<circle cx="182" cy="362" r="2" fill="#DAD8ED"/>
<circle cx="218" cy="362" r="2" fill="#DAD8ED"/>
<circle cx="254" cy="362" r="2" fill="#DAD8ED"/>
<circle cx="290" cy="362" r="2" fill="#DAD8ED"/>
<circle cx="326" cy="362" r="2" fill="#DAD8ED"/>
<circle cx="362" cy="362" r="2" fill="#DAD8ED"/>
<circle cx="398" cy="362" r="2" fill="#DAD8ED"/>
<circle cx="2" cy="398" r="2" fill="#DAD8ED"/>
<circle cx="38" cy="398" r="2" fill="#DAD8ED"/>
<circle cx="74" cy="398" r="2" fill="#DAD8ED"/>
<circle cx="110" cy="398" r="2" fill="#DAD8ED"/>
<circle cx="146" cy="398" r="2" fill="#DAD8ED"/>
<circle cx="182" cy="398" r="2" fill="#DAD8ED"/>
<circle cx="218" cy="398" r="2" fill="#DAD8ED"/>
<circle cx="254" cy="398" r="2" fill="#DAD8ED"/>
<circle cx="290" cy="398" r="2" fill="#DAD8ED"/>
<circle cx="326" cy="398" r="2" fill="#DAD8ED"/>
<circle cx="362" cy="398" r="2" fill="#DAD8ED"/>
<circle cx="398" cy="398" r="2" fill="#DAD8ED"/>
<circle cx="2" cy="434" r="2" fill="#DAD8ED"/>
<circle cx="38" cy="434" r="2" fill="#DAD8ED"/>
<circle cx="74" cy="434" r="2" fill="#DAD8ED"/>
<circle cx="110" cy="434" r="2" fill="#DAD8ED"/>
<circle cx="146" cy="434" r="2" fill="#DAD8ED"/>
<circle cx="182" cy="434" r="2" fill="#DAD8ED"/>
<circle cx="218" cy="434" r="2" fill="#DAD8ED"/>
<circle cx="254" cy="434" r="2" fill="#DAD8ED"/>
<circle cx="290" cy="434" r="2" fill="#DAD8ED"/>
<circle cx="326" cy="434" r="2" fill="#DAD8ED"/>
<circle cx="362" cy="434" r="2" fill="#DAD8ED"/>
<circle cx="398" cy="434" r="2" fill="#DAD8ED"/>
<circle cx="2" cy="470" r="2" fill="#DAD8ED"/>
<circle cx="38" cy="470" r="2" fill="#DAD8ED"/>
<circle cx="74" cy="470" r="2" fill="#DAD8ED"/>
<circle cx="110" cy="470" r="2" fill="#DAD8ED"/>
<circle cx="146" cy="470" r="2" fill="#DAD8ED"/>
<circle cx="182" cy="470" r="2" fill="#DAD8ED"/>
<circle cx="218" cy="470" r="2" fill="#DAD8ED"/>
<circle cx="254" cy="470" r="2" fill="#DAD8ED"/>
<circle cx="290" cy="470" r="2" fill="#DAD8ED"/>
<circle cx="326" cy="470" r="2" fill="#DAD8ED"/>
<circle cx="362" cy="470" r="2" fill="#DAD8ED"/>
<circle cx="398" cy="470" r="2" fill="#DAD8ED"/>
<circle cx="2" cy="506" r="2" fill="#DAD8ED"/>
<circle cx="38" cy="506" r="2" fill="#DAD8ED"/>
<circle cx="74" cy="506" r="2" fill="#DAD8ED"/>
<circle cx="110" cy="506" r="2" fill="#DAD8ED"/>
<circle cx="146" cy="506" r="2" fill="#DAD8ED"/>
<circle cx="182" cy="506" r="2" fill="#DAD8ED"/>
<circle cx="218" cy="506" r="2" fill="#DAD8ED"/>
<circle cx="254" cy="506" r="2" fill="#DAD8ED"/>
<circle cx="290" cy="506" r="2" fill="#DAD8ED"/>
<circle cx="326" cy="506" r="2" fill="#DAD8ED"/>
<circle cx="362" cy="506" r="2" fill="#DAD8ED"/>
<circle cx="398" cy="506" r="2" fill="#DAD8ED"/>
<circle cx="2" cy="542" r="2" fill="#DAD8ED"/>
<circle cx="38" cy="542" r="2" fill="#DAD8ED"/>
<circle cx="74" cy="542" r="2" fill="#DAD8ED"/>
<circle cx="110" cy="542" r="2" fill="#DAD8ED"/>
<circle cx="146" cy="542" r="2" fill="#DAD8ED"/>
<circle cx="182" cy="542" r="2" fill="#DAD8ED"/>
<circle cx="218" cy="542" r="2" fill="#DAD8ED"/>
<circle cx="254" cy="542" r="2" fill="#DAD8ED"/>
<circle cx="290" cy="542" r="2" fill="#DAD8ED"/>
<circle cx="326" cy="542" r="2" fill="#DAD8ED"/>
<circle cx="362" cy="542" r="2" fill="#DAD8ED"/>
<circle cx="398" cy="542" r="2" fill="#DAD8ED"/>
<circle cx="2" cy="578" r="2" fill="#DAD8ED"/>
<circle cx="38" cy="578" r="2" fill="#DAD8ED"/>
<circle cx="74" cy="578" r="2" fill="#DAD8ED"/>
<circle cx="110" cy="578" r="2" fill="#DAD8ED"/>
<circle cx="146" cy="578" r="2" fill="#DAD8ED"/>
<circle cx="182" cy="578" r="2" fill="#DAD8ED"/>
<circle cx="218" cy="578" r="2" fill="#DAD8ED"/>
<circle cx="254" cy="578" r="2" fill="#DAD8ED"/>
<circle cx="290" cy="578" r="2" fill="#DAD8ED"/>
<circle cx="326" cy="578" r="2" fill="#DAD8ED"/>
<circle cx="362" cy="578" r="2" fill="#DAD8ED"/>
<circle cx="398" cy="578" r="2" fill="#DAD8ED"/>
<circle cx="2" cy="614" r="2" fill="#DAD8ED"/>
<circle cx="38" cy="614" r="2" fill="#DAD8ED"/>
<circle cx="74" cy="614" r="2" fill="#DAD8ED"/>
<circle cx="110" cy="614" r="2" fill="#DAD8ED"/>
<circle cx="146" cy="614" r="2" fill="#DAD8ED"/>
<circle cx="182" cy="614" r="2" fill="#DAD8ED"/>
<circle cx="218" cy="614" r="2" fill="#DAD8ED"/>
<circle cx="254" cy="614" r="2" fill="#DAD8ED"/>
<circle cx="290" cy="614" r="2" fill="#DAD8ED"/>
<circle cx="326" cy="614" r="2" fill="#DAD8ED"/>
<circle cx="362" cy="614" r="2" fill="#DAD8ED"/>
<circle cx="398" cy="614" r="2" fill="#DAD8ED"/>
<circle cx="2" cy="650" r="2" fill="#DAD8ED"/>
<circle cx="38" cy="650" r="2" fill="#DAD8ED"/>
<circle cx="74" cy="650" r="2" fill="#DAD8ED"/>
<circle cx="110" cy="650" r="2" fill="#DAD8ED"/>
<circle cx="146" cy="650" r="2" fill="#DAD8ED"/>
<circle cx="182" cy="650" r="2" fill="#DAD8ED"/>
<circle cx="218" cy="650" r="2" fill="#DAD8ED"/>
<circle cx="254" cy="650" r="2" fill="#DAD8ED"/>
<circle cx="290" cy="650" r="2" fill="#DAD8ED"/>
<circle cx="326" cy="650" r="2" fill="#DAD8ED"/>
<circle cx="362" cy="650" r="2" fill="#DAD8ED"/>
<circle cx="398" cy="650" r="2" fill="#DAD8ED"/>
<circle cx="2" cy="686" r="2" fill="#DAD8ED"/>
<circle cx="38" cy="686" r="2" fill="#DAD8ED"/>
<circle cx="74" cy="686" r="2" fill="#DAD8ED"/>
<circle cx="110" cy="686" r="2" fill="#DAD8ED"/>
<circle cx="146" cy="686" r="2" fill="#DAD8ED"/>
<circle cx="182" cy="686" r="2" fill="#DAD8ED"/>
<circle cx="218" cy="686" r="2" fill="#DAD8ED"/>
<circle cx="254" cy="686" r="2" fill="#DAD8ED"/>
<circle cx="290" cy="686" r="2" fill="#DAD8ED"/>
<circle cx="326" cy="686" r="2" fill="#DAD8ED"/>
<circle cx="362" cy="686" r="2" fill="#DAD8ED"/>
<circle cx="398" cy="686" r="2" fill="#DAD8ED"/>
<circle cx="2" cy="722" r="2" fill="#DAD8ED"/>
<circle cx="38" cy="722" r="2" fill="#DAD8ED"/>
<circle cx="74" cy="722" r="2" fill="#DAD8ED"/>
<circle cx="110" cy="722" r="2" fill="#DAD8ED"/>
<circle cx="146" cy="722" r="2" fill="#DAD8ED"/>
<circle cx="182" cy="722" r="2" fill="#DAD8ED"/>
<circle cx="218" cy="722" r="2" fill="#DAD8ED"/>
<circle cx="254" cy="722" r="2" fill="#DAD8ED"/>
<circle cx="290" cy="722" r="2" fill="#DAD8ED"/>
<circle cx="326" cy="722" r="2" fill="#DAD8ED"/>
<circle cx="362" cy="722" r="2" fill="#DAD8ED"/>
<circle cx="398" cy="722" r="2" fill="#DAD8ED"/>
<circle cx="2" cy="758" r="2" fill="#DAD8ED"/>
<circle cx="38" cy="758" r="2" fill="#DAD8ED"/>
<circle cx="74" cy="758" r="2" fill="#DAD8ED"/>
<circle cx="110" cy="758" r="2" fill="#DAD8ED"/>
<circle cx="146" cy="758" r="2" fill="#DAD8ED"/>
<circle cx="182" cy="758" r="2" fill="#DAD8ED"/>
<circle cx="218" cy="758" r="2" fill="#DAD8ED"/>
<circle cx="254" cy="758" r="2" fill="#DAD8ED"/>
<circle cx="290" cy="758" r="2" fill="#DAD8ED"/>
<circle cx="326" cy="758" r="2" fill="#DAD8ED"/>
<circle cx="362" cy="758" r="2" fill="#DAD8ED"/>
<circle cx="398" cy="758" r="2" fill="#DAD8ED"/>
<circle cx="2" cy="794" r="2" fill="#DAD8ED"/>
<circle cx="38" cy="794" r="2" fill="#DAD8ED"/>
<circle cx="74" cy="794" r="2" fill="#DAD8ED"/>
<circle cx="110" cy="794" r="2" fill="#DAD8ED"/>
<circle cx="146" cy="794" r="2" fill="#DAD8ED"/>
<circle cx="182" cy="794" r="2" fill="#DAD8ED"/>
<circle cx="218" cy="794" r="2" fill="#DAD8ED"/>
<circle cx="254" cy="794" r="2" fill="#DAD8ED"/>
<circle cx="290" cy="794" r="2" fill="#DAD8ED"/>
<circle cx="326" cy="794" r="2" fill="#DAD8ED"/>
<circle cx="362" cy="794" r="2" fill="#DAD8ED"/>
<circle cx="398" cy="794" r="2" fill="#DAD8ED"/>
<circle cx="2" cy="830" r="2" fill="#DAD8ED"/>
<circle cx="38" cy="830" r="2" fill="#DAD8ED"/>
<circle cx="74" cy="830" r="2" fill="#DAD8ED"/>
<circle cx="110" cy="830" r="2" fill="#DAD8ED"/>
<circle cx="146" cy="830" r="2" fill="#DAD8ED"/>
<circle cx="182" cy="830" r="2" fill="#DAD8ED"/>
<circle cx="218" cy="830" r="2" fill="#DAD8ED"/>
<circle cx="254" cy="830" r="2" fill="#DAD8ED"/>
<circle cx="290" cy="830" r="2" fill="#DAD8ED"/>
<circle cx="326" cy="830" r="2" fill="#DAD8ED"/>
<circle cx="362" cy="830" r="2" fill="#DAD8ED"/>
<circle cx="398" cy="830" r="2" fill="#DAD8ED"/>
<circle cx="2" cy="866" r="2" fill="#DAD8ED"/>
<circle cx="38" cy="866" r="2" fill="#DAD8ED"/>
<circle cx="74" cy="866" r="2" fill="#DAD8ED"/>
<circle cx="110" cy="866" r="2" fill="#DAD8ED"/>
<circle cx="146" cy="866" r="2" fill="#DAD8ED"/>
<circle cx="182" cy="866" r="2" fill="#DAD8ED"/>
<circle cx="218" cy="866" r="2" fill="#DAD8ED"/>
<circle cx="254" cy="866" r="2" fill="#DAD8ED"/>
<circle cx="290" cy="866" r="2" fill="#DAD8ED"/>
<circle cx="326" cy="866" r="2" fill="#DAD8ED"/>
<circle cx="362" cy="866" r="2" fill="#DAD8ED"/>
<circle cx="398" cy="866" r="2" fill="#DAD8ED"/>
<circle cx="2" cy="902" r="2" fill="#DAD8ED"/>
<circle cx="38" cy="902" r="2" fill="#DAD8ED"/>
<circle cx="74" cy="902" r="2" fill="#DAD8ED"/>
<circle cx="110" cy="902" r="2" fill="#DAD8ED"/>
<circle cx="146" cy="902" r="2" fill="#DAD8ED"/>
<circle cx="182" cy="902" r="2" fill="#DAD8ED"/>
<circle cx="218" cy="902" r="2" fill="#DAD8ED"/>
<circle cx="254" cy="902" r="2" fill="#DAD8ED"/>
<circle cx="290" cy="902" r="2" fill="#DAD8ED"/>
<circle cx="326" cy="902" r="2" fill="#DAD8ED"/>
<circle cx="362" cy="902" r="2" fill="#DAD8ED"/>
<circle cx="398" cy="902" r="2" fill="#DAD8ED"/>
<circle cx="2" cy="938" r="2" fill="#DAD8ED"/>
<circle cx="38" cy="938" r="2" fill="#DAD8ED"/>
<circle cx="74" cy="938" r="2" fill="#DAD8ED"/>
<circle cx="110" cy="938" r="2" fill="#DAD8ED"/>
<circle cx="146" cy="938" r="2" fill="#DAD8ED"/>
<circle cx="182" cy="938" r="2" fill="#DAD8ED"/>
<circle cx="218" cy="938" r="2" fill="#DAD8ED"/>
<circle cx="254" cy="938" r="2" fill="#DAD8ED"/>
<circle cx="290" cy="938" r="2" fill="#DAD8ED"/>
<circle cx="326" cy="938" r="2" fill="#DAD8ED"/>
<circle cx="362" cy="938" r="2" fill="#DAD8ED"/>
<circle cx="398" cy="938" r="2" fill="#DAD8ED"/>
</g>
<path d="M368.375 31C368.375 31.2984 368.256 31.5845 368.045 31.7955C367.835 32.0065 367.548 32.125 367.25 32.125H350.75C350.452 32.125 350.165 32.0065 349.955 31.7955C349.744 31.5845 349.625 31.2984 349.625 31C349.625 30.7016 349.744 30.4155 349.955 30.2045C350.165 29.9935 350.452 29.875 350.75 29.875H367.25C367.548 29.875 367.835 29.9935 368.045 30.2045C368.256 30.4155 368.375 30.7016 368.375 31ZM350.75 26.125H367.25C367.548 26.125 367.835 26.0065 368.045 25.7955C368.256 25.5845 368.375 25.2984 368.375 25C368.375 24.7016 368.256 24.4155 368.045 24.2045C367.835 23.9935 367.548 23.875 367.25 23.875H350.75C350.452 23.875 350.165 23.9935 349.955 24.2045C349.744 24.4155 349.625 24.7016 349.625 25C349.625 25.2984 349.744 25.5845 349.955 25.7955C350.165 26.0065 350.452 26.125 350.75 26.125ZM367.25 35.875H350.75C350.452 35.875 350.165 35.9935 349.955 36.2045C349.744 36.4155 349.625 36.7016 349.625 37C349.625 37.2984 349.744 37.5845 349.955 37.7955C350.165 38.0065 350.452 38.125 350.75 38.125H367.25C367.548 38.125 367.835 38.0065 368.045 37.7955C368.256 37.5845 368.375 37.2984 368.375 37C368.375 36.7016 368.256 36.4155 368.045 36.2045C367.835 35.9935 367.548 35.875 367.25 35.875Z" fill="#5E5C78"/>
<path d="M49.3465 35.9934C51.0492 35.2392 52.4327 34.1617 53.3905 32.7611C54.3483 31.3604 54.7739 29.6364 54.7739 27.697C54.7739 25.7576 54.2418 23.926 53.3905 22.5253C52.4327 21.1246 51.1557 19.9394 49.4529 19.1852C47.7502 18.431 45.7282 18 43.387 18H32V37.1786L37.1082 44.613H43.5998L38.4916 37.1786H43.7062L48.8144 44.613H55.306L49.3465 35.9934ZM47.2181 31.0371C46.2603 31.8991 44.8769 32.2223 43.0677 32.2223H38.066V23.064H42.9613C44.7704 23.064 46.1539 23.495 47.1117 24.2492C48.0695 25.0034 48.4951 26.1886 48.4951 27.697C48.6016 29.0977 48.1759 30.2829 47.2181 31.0371Z" fill="#7A71EF"/>
</svg>
