<svg width="589" height="508" viewBox="0 0 589 508" fill="none" xmlns="http://www.w3.org/2000/svg">
<path d="M588.419 116.507L588.33 116.587L588.419 116.507Z" fill="#181730"/>
<path d="M76.6986 242.266C76.6986 242.266 58.4916 226.613 42.1072 196.262L6.35498 186.071C26.9376 220.643 38.3135 234.105 38.3135 234.105L76.6986 242.266Z" fill="white" stroke="#181730" stroke-width="0.549974" stroke-miterlimit="10"/>
<path d="M278.859 424.196C278.859 424.196 281.092 428.081 274.917 434.728C267.599 442.595 248.481 454.341 199.852 468.074L235.793 417.795C267.09 407.445 287.777 398.143 301.448 390.297C301.505 390.263 301.562 390.234 301.618 390.2L278.853 424.197L278.859 424.196Z" fill="#7A71EF" stroke="#2D2C3F" stroke-width="0.549974" stroke-miterlimit="10" stroke-linejoin="bevel"/>
<path d="M115.615 471.055C115.615 471.055 183.625 469.157 227.169 447.013L268.967 391.79C218.463 419.044 138.097 432.211 138.097 432.211L115.615 471.049L115.615 471.055Z" fill="#7A71EF" stroke="#2D2C3F" stroke-width="0.549974" stroke-miterlimit="10"/>
<path d="M54.9784 457.409L55.2973 457.481L55.3579 457.213C55.2973 457.481 55.2975 457.481 55.298 457.482L55.2999 457.482L55.3074 457.484L55.3366 457.49L55.4518 457.515C55.5536 457.538 55.7054 457.57 55.9056 457.612C56.3062 457.695 56.9009 457.815 57.6791 457.962C59.2357 458.256 61.5265 458.659 64.4663 459.093C70.3458 459.96 78.8219 460.953 89.2128 461.455C109.994 462.459 138.439 461.5 169.093 453.646L169.197 453.62L169.255 453.53L203.132 401.628L203.531 401.017L202.828 401.213C162.468 412.471 129.608 416.779 106.842 418.274C95.4588 419.021 86.5991 419.065 80.5868 418.922C77.5807 418.851 75.2864 418.733 73.7446 418.633C72.9736 418.583 72.3908 418.537 72.0011 418.504C71.8063 418.487 71.6598 418.474 71.5621 418.465C71.5133 418.46 71.4767 418.457 71.4525 418.454L71.4253 418.452L71.4187 418.451L71.4171 418.451C71.4168 418.451 71.4167 418.451 71.3882 418.724L71.4167 418.451L71.2131 418.429L71.1344 418.618L55.1041 457.107L54.9784 457.409Z" fill="white" stroke="#181730" stroke-width="0.549974" stroke-miterlimit="10"/>
<path d="M39.96 371.351L39.4283 370.823L39.488 371.521L22.5888 424.131L22.5336 424.303L22.6693 424.422C38.778 438.549 61.4723 443.789 80.104 445.506C89.4251 446.365 97.7411 446.343 103.727 446.107C106.72 445.989 109.131 445.817 110.795 445.674C111.626 445.603 112.271 445.539 112.709 445.493C112.927 445.47 113.094 445.451 113.206 445.439C113.262 445.432 113.305 445.427 113.334 445.424L113.366 445.42L113.374 445.419L113.376 445.419C113.377 445.419 113.377 445.419 113.344 445.146L113.377 445.419L113.518 445.401L113.586 445.276L140.948 394.376L141.218 393.874L140.657 393.975L140.706 394.246C140.657 393.975 140.657 393.975 140.656 393.975L140.654 393.976L140.646 393.977L140.61 393.983C140.579 393.989 140.532 393.997 140.469 394.008C140.344 394.029 140.157 394.06 139.912 394.1C139.421 394.178 138.696 394.289 137.76 394.418C135.889 394.676 133.175 395.005 129.81 395.293C123.078 395.869 113.741 396.276 103.318 395.603C82.4611 394.257 57.3081 388.59 39.96 371.351Z" fill="white" stroke="#181730" stroke-width="0.549974" stroke-miterlimit="10"/>
<path d="M116.95 457.538L139.811 415.008C135.986 415.572 132.297 416.06 128.757 416.493L113.354 445.15C113.354 445.15 88.0156 448.272 61.5494 442.371L57.2416 452.72C86.3208 461.321 116.95 457.544 116.95 457.544L116.95 457.538Z" fill="#7A71EF"/>
<path d="M66.7281 437.057L70.5743 428.536C43.2475 423.618 32.7803 413.409 28.8194 405.644L24.8502 418.008C30.5087 425.2 42.2993 433.169 66.7281 437.057Z" fill="#7A71EF"/>
<path d="M82.998 301.354L70.1079 318.473L82.998 301.354Z" fill="#181730"/>
<path d="M316.36 374.83L274.927 434.726C281.102 428.085 278.868 424.195 278.868 424.195L316.991 367.26C316.991 367.26 324.557 364.594 316.366 374.829L316.36 374.83Z" fill="white" stroke="#181730" stroke-width="0.549974" stroke-miterlimit="10"/>
<path d="M274.924 434.728C281.1 428.087 278.866 424.196 278.866 424.196L302.242 389.363" stroke="#2D2C3F" stroke-width="0.549974" stroke-miterlimit="10"/>
<path d="M231.084 313.911L231.047 313.967L231.082 313.958L231.084 313.911Z" fill="white"/>
<path d="M332.878 186.686C332.878 186.686 349.827 197.699 366.907 221.177L397.881 225.661C376.826 199.13 365.821 189.183 365.821 189.183L332.878 186.686Z" fill="white" stroke="#181730" stroke-width="0.549974" stroke-miterlimit="10"/>
<path d="M306.109 232.983C306.109 232.983 284.488 218.742 262.799 188.534L223.162 182.543C249.918 216.694 263.935 229.522 263.935 229.522L306.109 232.983Z" fill="#7A71EF" stroke="#181730" stroke-width="0.549974" stroke-miterlimit="10"/>
<path d="M88.1634 133.275C75.508 133.987 70.4464 129.31 68.6374 124.192C66.6495 118.575 68.5755 112.436 68.5755 112.436L54.5336 102.262C57.8086 103.574 62.0973 104.252 67.6992 103.94L88.1649 133.28L88.1634 133.275Z" fill="#7A71EF" stroke="#2D2C3F" stroke-width="0.549974" stroke-miterlimit="10" stroke-linejoin="bevel"/>
<path d="M68.5718 112.435C68.5718 112.435 65.8813 121.342 70.2389 127.243L46.3565 94.8851C42.774 87.6141 45.3503 78.6528 45.3503 78.6528L68.5734 112.432L68.5718 112.435Z" fill="#53F7DF" stroke="#181730" stroke-width="0.549974" stroke-miterlimit="10"/>
<path d="M356.626 352.33L356.572 352.394C356.572 352.394 356.61 352.349 356.626 352.33Z" fill="white" stroke="#181730" stroke-width="0.549974" stroke-miterlimit="10"/>
<path d="M349.759 306.794C349.758 306.794 349.758 306.793 349.706 307.064L349.758 306.793L349.601 306.764L349.497 306.885L306.181 357.758L306.004 357.966L306.211 358.145L306.211 358.145L306.211 358.145L306.212 358.146L306.215 358.149L306.232 358.163C306.246 358.176 306.268 358.196 306.297 358.222C306.355 358.275 306.441 358.354 306.552 358.46C306.774 358.671 307.094 358.988 307.484 359.407C308.266 360.245 309.329 361.49 310.453 363.114C312.701 366.362 315.186 371.122 316.142 377.173C316.813 381.44 316.727 386.351 315.254 391.834C313.526 398.265 309.896 405.487 303.335 413.385L303.754 413.741L303.758 413.737L356.41 353.002L356.411 353.01L356.838 352.516C365.001 343.059 368.678 335.463 369.567 329.377C370.458 323.276 368.544 318.717 365.594 315.363C362.652 312.018 358.688 309.877 355.474 308.574C353.865 307.922 352.438 307.477 351.413 307.196C350.901 307.055 350.488 306.954 350.203 306.889C350.061 306.857 349.95 306.833 349.875 306.817C349.837 306.809 349.808 306.803 349.789 306.8L349.766 306.795L349.76 306.794L349.759 306.794Z" fill="white" stroke="#181730" stroke-width="0.549974" stroke-miterlimit="10"/>
<path d="M153.566 90.4012C153.566 90.4012 172.563 80.3662 181.692 91.4742L185.838 66.0024C176.088 52.5341 157.492 61.1645 157.492 61.1645L153.566 90.4012Z" fill="white" stroke="#181730" stroke-width="0.549974" stroke-miterlimit="10"/>
<path d="M330.281 382.729L341.979 369.242C336.975 358.031 326.564 351.055 315.945 346.717L306.395 357.936C306.395 357.936 309.198 360.358 311.897 364.832C319.468 368.956 326.287 374.712 330.288 382.735L330.281 382.729Z" fill="#7A71EF"/>
<path d="M26.4591 313.517C26.4591 313.517 9.4924 301.689 0.964844 286.621L21.8001 284.455C29.1118 298.101 45.5072 308.673 45.5072 308.673L26.4573 313.513L26.4591 313.517Z" fill="#7A71EF" stroke="#181730" stroke-width="0.549974" stroke-miterlimit="10" stroke-linejoin="bevel"/>
<path d="M96.8103 377.371C40.7343 370.216 49.4741 326.433 49.4741 326.433L26.4916 395.56C26.4916 395.56 23.0062 421.023 73.4717 429.055L96.8044 377.371" fill="white"/>
<path d="M96.8103 377.371C40.7343 370.216 49.4741 326.433 49.4741 326.433L26.4916 395.56C26.4916 395.56 23.0062 421.023 73.4717 429.055L96.8044 377.371" stroke="#181730" stroke-width="0.549974" stroke-miterlimit="10"/>
<path d="M43.5885 412.259L47.3414 403.55C39.3337 390.837 39.0553 381.462 41.9687 374.678L52.1313 349.28C51.4548 347.621 50.9111 345.986 50.4835 344.389L40.2085 370.07L36.1108 380.306C32.9886 387.637 33.5861 397.964 43.5821 412.253L43.5885 412.259Z" fill="#7A71EF"/>
<path d="M49.4355 406.692C36.8277 388.676 39.1039 376.938 44.9996 369.596C51.4693 361.534 62.283 358.768 62.283 358.768L64.4654 328.764C65.5213 334.793 68.4378 341.738 74.0149 349.715L49.4301 406.699L49.4355 406.692Z" fill="#7A71EF" stroke="#2D2C3F" stroke-width="0.549974" stroke-miterlimit="10" stroke-linejoin="bevel"/>
<path d="M62.2829 358.762C62.2829 358.762 46.6877 362.929 41.9646 374.745L67.8793 309.966C75.3319 298.041 90.9026 293.657 90.9026 293.657L62.2888 358.761L62.2829 358.762Z" fill="white" stroke="#181730" stroke-width="0.549974" stroke-miterlimit="10"/>
<path d="M156.535 507.218C156.535 507.218 161.459 449.689 156.962 437.917C152.465 426.145 147.544 421.651 147.117 405.596C146.691 389.542 149.365 381.196 149.899 373.168C150.433 365.141 151.075 354.548 151.612 350.695C152.149 346.843 152.468 341.17 154.93 335.927C157.392 330.684 157.926 325.854 162.208 324.468C166.49 323.083 171.948 326.616 167.559 340.955C167.559 340.955 166.917 348.445 165.631 351.337C165.631 351.337 167.534 357.254 167.749 360.68L171.648 359.672C171.648 359.672 172.053 352.248 172.961 347.22C172.961 347.22 171.623 341.12 172.587 330.524V317.094C172.587 317.094 172.16 308.907 179.917 308.532C179.917 308.532 187.677 307.302 186.873 318.914L186.658 329.508L187.73 342.563C187.73 342.563 188.212 346.845 188.371 350.802C188.531 354.76 188.371 355.352 188.371 355.352L190.404 355.244C190.404 355.244 191.687 346.683 191.742 345.452C191.797 344.221 191.902 333.413 193.188 325.708L194.096 310.992C194.096 310.992 194.631 304.837 200.144 305.319C205.657 305.801 206.78 309.931 206.403 315.062C206.026 320.192 206.469 327.365 206.469 327.365C206.469 327.365 206.94 347.002 206.832 348.233C206.725 349.464 207.507 353.799 206.849 355.886L208.438 355.564C208.438 355.564 209.347 347.699 209.669 347.055L209.936 329.984C209.936 329.984 207.956 325.917 208.92 316.072C209.884 306.228 217.803 308.849 219.676 311.041C221.548 313.233 224.652 330.304 224.652 330.304L227.114 348.924C227.114 348.924 227.915 364.976 229.146 367.386C230.377 369.795 230.322 371.453 230.322 371.453L232.249 371.56C232.249 371.56 234.177 361.126 237.493 356.362C237.493 356.362 232.891 351.171 235.78 337.686C238.668 324.201 246.214 327.946 246.214 327.946C246.214 327.946 247.39 327.787 247.604 328.536C247.819 329.285 248.194 337.794 248.194 339.184C248.194 339.184 248.89 341.966 252.154 345.658C255.417 349.351 256.328 352.507 255.899 360.319C255.469 368.132 254.668 378.566 254.775 381.242C254.882 383.919 255.364 392.373 240.703 412.01C226.043 431.647 228.592 442.901 230.449 452.179C232.305 461.456 242.436 507.21 242.436 507.21H156.535V507.218Z" fill="#DAD8ED" stroke="#2D2C3F" stroke-width="0.549974" stroke-miterlimit="10"/>
<path d="M154.332 342.585C154.332 342.585 160.877 347.077 167.558 340.96" stroke="#2D2C3F" stroke-width="0.549974" stroke-miterlimit="10"/>
<path d="M153.476 354.784C153.476 354.784 161.627 355.065 165.631 351.339" stroke="#2D2C3F" stroke-width="0.549974" stroke-miterlimit="10"/>
<path d="M151.371 368.377C151.371 368.377 155.143 365.772 159.552 364.31C163.961 362.848 165.47 361.272 167.747 360.683" stroke="#2D2C3F" stroke-width="0.549974" stroke-miterlimit="10"/>
<path d="M171.651 359.675C171.651 359.675 174.561 358.994 179.091 357.141C183.621 355.288 188.374 355.357 188.374 355.357" stroke="#2D2C3F" stroke-width="0.549974" stroke-miterlimit="10"/>
<path d="M174.272 346.586C174.272 346.586 181.352 344.056 186.901 346.146" stroke="#2D2C3F" stroke-width="0.549974" stroke-miterlimit="10"/>
<path d="M173.693 330.24C173.693 330.24 180.313 332.983 185.741 329.511" stroke="#2D2C3F" stroke-width="0.549974" stroke-miterlimit="10"/>
<path d="M194.559 324.606C194.559 324.606 202.135 323.678 204.773 325.641" stroke="#2D2C3F" stroke-width="0.549974" stroke-miterlimit="10"/>
<path d="M193.074 345.32C193.074 345.32 201.6 342.943 205.309 346.154" stroke="#2D2C3F" stroke-width="0.549974" stroke-miterlimit="10"/>
<path d="M211.482 330.389C211.482 330.389 217.119 331.463 222.648 330.389" stroke="#2D2C3F" stroke-width="0.549974" stroke-miterlimit="10"/>
<path d="M210.66 346.587C210.66 346.587 219.756 344.725 225.037 347.721" stroke="#2D2C3F" stroke-width="0.549974" stroke-miterlimit="10"/>
<path d="M246.475 352.609C246.475 352.609 241.036 350.607 237.495 356.37" stroke="#2D2C3F" stroke-width="0.549974" stroke-miterlimit="10"/>
<path d="M198.138 383.751C198.138 383.751 209.376 370.624 230.324 371.458" stroke="#2D2C3F" stroke-width="0.549974" stroke-miterlimit="10"/>
<path d="M242.233 380.719C242.233 380.719 237.827 372.105 232.254 371.565" stroke="#2D2C3F" stroke-width="0.549974" stroke-miterlimit="10"/>
<path d="M190.406 355.247C190.406 355.247 194.784 355.247 196.995 355.891C199.207 356.536 203.682 356.495 206.848 355.891" stroke="#2D2C3F" stroke-width="0.549974" stroke-miterlimit="10"/>
<path d="M208.44 355.567C208.44 355.567 214.44 353.857 219.435 355.96C224.431 358.064 226.284 358.601 226.857 359.243" stroke="#2D2C3F" stroke-width="0.549974" stroke-miterlimit="10"/>
<path d="M148.107 386.692C148.107 386.692 150.123 380.54 168.958 378.329C187.794 376.118 196.212 369.553 196.212 369.553" stroke="#2D2C3F" stroke-width="0.549974" stroke-miterlimit="10"/>
<path d="M182.585 380.397C182.585 380.397 201.776 374.645 210.197 371.42C218.618 368.195 226.607 371.42 226.607 371.42" stroke="#2D2C3F" stroke-width="0.549974" stroke-miterlimit="10"/>
<path d="M283.83 339.943L284.364 339.966L284.375 339.691C284.364 339.966 284.364 339.966 284.364 339.966L284.366 339.966L284.373 339.966L284.402 339.967C284.427 339.969 284.466 339.97 284.517 339.973C284.619 339.979 284.771 339.987 284.97 340C285.367 340.025 285.952 340.067 286.699 340.133C288.192 340.266 290.334 340.495 292.922 340.882C298.099 341.656 305.059 343.062 312.197 345.588C326.488 350.644 341.405 360.153 344.281 377.978L344.377 378.578L344.764 378.109L386.346 327.663L386.419 327.575L386.408 327.461C384.321 306.371 370.263 294.615 356.77 288.141C350.024 284.903 343.41 282.982 338.484 281.869C336.02 281.313 333.978 280.958 332.55 280.743C331.836 280.635 331.276 280.563 330.894 280.517C330.702 280.493 330.556 280.477 330.457 280.467C330.407 280.461 330.369 280.457 330.344 280.455L330.315 280.452L330.307 280.451L330.305 280.451C330.305 280.451 330.305 280.451 330.279 280.725L330.305 280.451L330.155 280.437L330.062 280.556L284.158 339.522L283.83 339.943Z" fill="white" stroke="#181730" stroke-width="0.549974" stroke-miterlimit="10"/>
<path d="M384.771 319.833C383.386 314.605 381.191 310.064 378.46 306.121L356.774 330.223C338.652 323.728 318.54 320.789 299.92 319.731L285.557 338.175C308.143 338.294 334.931 340.74 358.392 349.149L384.771 319.828L384.771 319.833Z" fill="#7A71EF"/>
<path d="M273.293 263.093L273.26 262.825L273.288 263.089L273.071 262.945L233.438 322.504L233.088 323.029L233.711 322.928L233.667 322.656C233.711 322.928 233.712 322.927 233.712 322.927L233.714 322.927L233.724 322.926L233.762 322.919L233.912 322.896C234.046 322.875 234.245 322.844 234.508 322.804C235.033 322.725 235.81 322.612 236.818 322.474C238.835 322.198 241.776 321.826 245.472 321.438C252.863 320.663 263.271 319.826 275.335 319.584C299.468 319.099 330.206 320.992 356.681 330.483L356.855 330.546L356.979 330.408L407.967 273.729L408.248 273.416L407.85 273.284C377.909 263.324 344.258 260.711 318.104 260.586C305.024 260.523 293.815 261.083 285.875 261.658C281.905 261.946 278.752 262.237 276.591 262.457C275.511 262.567 274.678 262.659 274.116 262.723C273.835 262.756 273.621 262.781 273.477 262.798L273.315 262.818L273.274 262.823L273.271 262.824L273.263 262.825L273.26 262.825C273.26 262.825 273.26 262.825 273.293 263.093Z" fill="white" stroke="#181730" stroke-width="0.549974" stroke-miterlimit="10"/>
<path d="M316.252 295.481C316.252 295.481 285.593 295.653 247.334 302.119L235.788 319.468C279.778 310.676 317.533 310.467 317.533 310.467L354.416 262.734C350.334 262.316 346.296 261.984 342.34 261.722L316.258 295.48L316.252 295.481Z" fill="#7A71EF"/>
<path d="M186.036 317.475L185.67 318.12L186.368 317.869C216.508 307.001 248.979 301.469 273.921 298.654C286.391 297.247 296.976 296.519 304.443 296.144C308.176 295.956 311.13 295.856 313.15 295.803C314.16 295.776 314.937 295.761 315.461 295.753C315.723 295.749 315.921 295.747 316.055 295.745L316.205 295.744L316.242 295.744L316.252 295.744L316.254 295.744C316.255 295.744 316.255 295.744 316.253 295.469L316.255 295.744L316.389 295.743L316.471 295.637L362.618 235.907L362.941 235.49L362.414 235.465L362.401 235.739C362.414 235.465 362.414 235.465 362.413 235.464L362.41 235.464L362.4 235.464L362.359 235.462C362.323 235.46 362.27 235.458 362.199 235.455C362.057 235.449 361.845 235.441 361.567 235.432C361.009 235.413 360.183 235.389 359.107 235.368C356.955 235.328 353.804 235.301 349.802 235.358C341.8 235.471 330.399 235.918 316.8 237.252C289.604 239.919 253.611 246.136 218.435 260.333L218.346 260.369L218.299 260.453L186.036 317.475Z" fill="white" stroke="#181730" stroke-width="0.549974" stroke-miterlimit="10"/>
<path d="M217.616 286.587C212.05 287.913 206.68 289.316 201.505 290.768L189.562 311.875C196.721 309.725 204.287 307.67 212.258 305.777L244.774 251.437C242.266 252.191 239.749 252.983 237.224 253.811L217.61 286.588L217.616 286.587Z" fill="#7A71EF"/>
<path d="M112.701 328.623L112.212 329.581L113.101 328.975L112.946 328.748C113.101 328.975 113.101 328.975 113.101 328.974L113.102 328.974L113.107 328.97L113.128 328.956L113.212 328.899C113.287 328.849 113.4 328.774 113.55 328.675C113.849 328.478 114.297 328.186 114.892 327.809C116.08 327.054 117.852 325.958 120.185 324.594C124.85 321.865 131.757 318.063 140.719 313.771C158.641 305.189 184.781 294.652 217.642 286.839L217.755 286.812L217.815 286.712L255.233 224.182L255.589 223.588L254.922 223.776C216.97 234.498 190.179 243.541 172.874 249.905C164.221 253.087 157.941 255.599 153.822 257.316C151.763 258.174 150.244 258.834 149.239 259.279C148.737 259.502 148.363 259.671 148.115 259.785C147.991 259.841 147.898 259.884 147.836 259.913L147.766 259.946L147.749 259.954L147.744 259.956L147.743 259.956C147.743 259.957 147.743 259.957 147.86 260.205L147.743 259.957L147.658 259.997L147.615 260.081L112.701 328.623Z" fill="white" stroke="#181730" stroke-width="0.549974" stroke-miterlimit="10"/>
<path d="M153.516 288.067C153.516 288.067 141.466 293.612 126.343 302.468L115.934 322.903C134.015 311.745 149.763 304.5 149.763 304.5L175.84 249.118C174.151 249.731 172.544 250.32 171.018 250.884L153.515 288.061L153.516 288.067Z" fill="#7A71EF"/>
<path d="M153.497 288.069L153.612 288.319L153.703 288.277L153.746 288.186L180.783 230.768L181.023 230.256L180.473 230.382L180.534 230.65C180.473 230.382 180.472 230.382 180.472 230.383L180.47 230.383L180.462 230.385L180.432 230.392C180.405 230.398 180.365 230.407 180.313 230.42C180.208 230.445 180.053 230.482 179.85 230.533C179.443 230.633 178.844 230.786 178.075 230.993C176.536 231.407 174.314 232.038 171.579 232.911C166.11 234.656 158.587 237.365 150.373 241.221C134.164 248.829 115.227 260.917 104.072 278.905L104.053 278.675L103.618 279.645L75.4471 342.561L74.4835 344.714L75.9165 342.841C86.9903 328.37 106.401 314.741 123.07 304.721C131.4 299.713 139.036 295.612 144.591 292.763C147.367 291.339 149.624 290.228 151.185 289.472C151.966 289.095 152.573 288.806 152.985 288.612C153.191 288.515 153.348 288.442 153.453 288.393L153.572 288.337L153.602 288.324L153.61 288.32L153.611 288.319C153.612 288.319 153.612 288.319 153.497 288.069Z" fill="white" stroke="#181730" stroke-width="0.549974" stroke-miterlimit="10"/>
</svg>
