<svg width="200" height="45" viewBox="0 0 200 45" fill="none" xmlns="http://www.w3.org/2000/svg">
<path d="M74.8379 9.28296H80.6282V35.5039H74.8379V9.28296Z" fill="#7A71EF"/>
<path d="M110.106 34.7578C108.422 33.9051 107.053 32.626 106.106 31.0271C105.158 29.4283 104.632 27.6163 104.632 25.6977C104.632 23.6725 105.158 21.8605 106.106 20.3682C107.053 18.7694 108.422 17.5969 110.106 16.6376C111.791 15.7849 113.686 15.252 115.791 15.252C117.897 15.252 119.687 15.6783 121.266 16.6376C122.845 17.4903 124.003 18.7694 124.74 20.4748L120.213 22.9264C119.16 21.1144 117.686 20.1551 115.686 20.1551C114.212 20.1551 112.949 20.688 111.896 21.6473C110.949 22.6066 110.422 23.9923 110.422 25.6977C110.422 27.4031 110.949 28.7888 111.896 29.7481C112.844 30.7074 114.107 31.2403 115.686 31.2403C117.686 31.2403 119.16 30.281 120.213 28.469L124.74 30.9206C124.003 32.5194 122.845 33.7985 121.266 34.6512C119.687 35.5039 117.897 36.0368 115.791 36.0368C113.686 36.1434 111.791 35.7171 110.106 34.7578Z" fill="#7A71EF"/>
<path d="M141.269 34.8645C140.743 35.2908 140.006 35.6106 139.164 35.8238C138.322 36.0369 137.479 36.1435 136.532 36.1435C134.11 36.1435 132.321 35.504 131.057 34.3315C129.794 33.159 129.162 31.347 129.162 28.8955V20.5815H126.004V16.1048H129.057V11.2017H134.847V16.1048H139.795V20.5815H134.847V28.7889C134.847 29.6416 135.058 30.2811 135.479 30.7075C135.9 31.1338 136.532 31.4536 137.269 31.4536C138.216 31.4536 138.953 31.2404 139.585 30.7075L141.269 34.8645Z" fill="#7A71EF"/>
<path d="M51.0456 29.535C50.3086 30.1745 49.5717 30.7075 48.8347 31.0272C47.9925 31.347 47.1502 31.4536 46.0975 31.4536C44.6235 31.4536 43.3602 31.1338 42.3074 30.3877C41.2546 29.6416 40.623 28.6823 40.4124 27.4032H55.4673C55.5725 26.4439 55.5725 25.911 55.5725 25.8044C55.5725 23.6726 55.1514 21.8606 54.2039 20.2617C53.2564 18.6629 52.0983 17.4904 50.5192 16.6377C48.94 15.785 47.1502 15.3586 45.2552 15.3586C43.2549 15.3586 41.4652 15.785 39.7807 16.7443C38.2015 17.597 36.9382 18.8761 35.9907 20.4749C35.0432 22.0738 34.6221 23.8858 34.6221 25.8044C34.6221 27.8296 35.0432 29.6416 35.9907 31.1338C36.9382 32.7327 38.3068 33.9052 39.9913 34.8645C41.6757 35.7172 43.676 36.2501 45.9922 36.2501C49.3611 36.2501 51.8878 35.2908 53.7828 33.4788L51.0456 29.535ZM41.8863 20.9013C42.7285 20.1552 43.8866 19.7288 45.1499 19.7288C46.4133 19.7288 47.5714 20.1552 48.4136 20.9013C49.2558 21.6474 49.8875 22.7133 49.9928 23.9924H40.2018C40.5177 22.7133 41.0441 21.6474 41.8863 20.9013Z" fill="#7A71EF"/>
<path d="M98.9469 29.535C98.21 30.1745 97.473 30.7075 96.7361 31.0272C95.8938 31.347 95.0516 31.4536 93.9988 31.4536C92.5249 31.4536 91.2616 31.1338 90.2088 30.3877C89.156 29.6416 88.5243 28.6823 88.3138 27.4032H103.369C103.474 26.4439 103.474 25.911 103.474 25.8044C103.474 23.6726 103.053 21.8606 102.105 20.2617C101.158 18.6629 99.9997 17.4904 98.4205 16.6377C96.8414 15.785 95.0516 15.3586 93.1566 15.3586C91.1563 15.3586 89.3666 15.785 87.6821 16.7443C86.1029 17.597 84.8396 18.8761 83.8921 20.4749C82.9446 22.0738 82.5234 23.8858 82.5234 25.8044C82.5234 27.8296 82.9446 29.6416 83.8921 31.1338C84.8396 32.7327 86.2082 33.9052 87.8927 34.8645C89.5771 35.7172 91.5774 36.2501 93.8935 36.2501C97.2625 36.2501 99.7892 35.2908 101.684 33.4788L98.9469 29.535ZM89.7877 20.9013C90.6299 20.1552 91.788 19.7288 93.0513 19.7288C94.3147 19.7288 95.4727 20.1552 96.315 20.9013C97.1572 21.6474 97.7889 22.7133 97.8941 23.9924H88.1032C88.3138 22.7133 88.8402 21.6474 89.7877 20.9013Z" fill="#7A71EF"/>
<path d="M28.4104 27.0833C30.0949 26.3372 31.4635 25.2713 32.411 23.8857C33.3585 22.5 33.7797 20.7946 33.7797 18.876C33.7797 16.9574 33.2533 15.1454 32.411 13.7597C31.4635 12.374 30.2002 11.2016 28.5157 10.4554C26.8313 9.70932 24.831 9.28296 22.5148 9.28296H11.25V28.2558L16.3034 35.6105H22.7254L17.672 28.2558H22.8307L27.884 35.6105H34.306L28.4104 27.0833ZM26.3049 22.1802C25.3574 23.033 23.9887 23.3527 22.199 23.3527H17.2509V14.2926H22.0937C23.8835 14.2926 25.2521 14.719 26.1996 15.4651C27.1471 16.2113 27.5682 17.3837 27.5682 18.876C27.6735 20.2616 27.2524 21.4341 26.3049 22.1802Z" fill="#7A71EF"/>
<path d="M73.3648 16.8508C74.3123 13.0136 72.5225 10.7752 70.8381 9.81589C69.7853 9.17636 68.2061 8.75 66.5216 8.75C64.1002 8.85659 62.2052 9.38953 60.8366 10.7752C59.468 12.1609 58.8363 13.9729 58.8363 16.2112V17.9167H55.7832V22.3934H58.8363V35.5039H64.6266V22.5H68.943V18.0233H64.5213V16.3178C64.5213 14.3992 65.3636 13.3333 67.1533 13.4399C68.3114 13.5465 69.3642 14.6124 69.0483 15.7849L73.3648 16.8508Z" fill="#7A71EF"/>
<path d="M188.75 30.7074V35.6105H168.642V9.28296H188.223V14.1861H174.537V19.9419H183.381V24.6318H174.537V30.7074H188.75Z" fill="#7A71EF"/>
<path d="M163.273 27.8294C161.483 29.8546 159.377 30.9205 156.745 30.9205C155.166 30.9205 153.692 30.6007 152.429 29.8546C151.166 29.1085 150.218 28.1492 149.481 26.8701C148.744 25.591 148.428 24.0988 148.428 22.5C148.428 20.9011 148.744 19.4089 149.481 18.1298C150.218 16.8507 151.166 15.8914 152.429 15.1453C153.692 14.3992 155.166 14.0794 156.745 14.0794C159.377 14.0794 161.483 15.1453 163.273 17.1705L166.326 12.6938C165.273 11.6279 164.01 10.7752 162.536 10.1356C160.746 9.2829 158.64 8.96313 156.43 8.96313C153.798 8.96313 151.376 9.49608 149.165 10.6686C147.06 11.841 145.375 13.4399 144.112 15.4651C142.849 17.4903 142.322 19.8352 142.322 22.5C142.322 25.0581 142.954 27.4031 144.112 29.5348C145.375 31.56 147.06 33.2655 149.165 34.3314C151.271 35.5038 153.692 36.0368 156.324 36.0368C158.535 36.0368 160.641 35.6104 162.431 34.8643C163.904 34.2248 165.168 33.372 166.221 32.1996L163.273 27.8294Z" fill="#7A71EF"/>
</svg>
