<svg width="201" height="45" viewBox="0 0 201 45" fill="none" xmlns="http://www.w3.org/2000/svg">
<path d="M75.3145 9.28296H81.1048V35.5039H75.3145V9.28296Z" fill="#7A71EF"/>
<path d="M110.583 34.7578C108.898 33.9051 107.53 32.626 106.582 31.0271C105.635 29.4283 105.108 27.6163 105.108 25.6977C105.108 23.6725 105.635 21.8605 106.582 20.3682C107.53 18.7694 108.898 17.5969 110.583 16.6376C112.267 15.7849 114.162 15.252 116.268 15.252C118.374 15.252 120.163 15.6783 121.742 16.6376C123.322 17.4903 124.48 18.7694 125.217 20.4748L120.69 22.9264C119.637 21.1144 118.163 20.1551 116.163 20.1551C114.689 20.1551 113.425 20.688 112.373 21.6473C111.425 22.6066 110.899 23.9923 110.899 25.6977C110.899 27.4031 111.425 28.7888 112.373 29.7481C113.32 30.7074 114.583 31.2403 116.163 31.2403C118.163 31.2403 119.637 30.281 120.69 28.469L125.217 30.9206C124.48 32.5194 123.322 33.7985 121.742 34.6512C120.163 35.5039 118.374 36.0368 116.268 36.0368C114.162 36.1434 112.267 35.7171 110.583 34.7578Z" fill="#7A71EF"/>
<path d="M141.746 34.8645C141.219 35.2908 140.483 35.6106 139.64 35.8238C138.798 36.0369 137.956 36.1435 137.008 36.1435C134.587 36.1435 132.797 35.504 131.534 34.3315C130.271 33.159 129.639 31.347 129.639 28.8955V20.5815H126.48V16.1048H129.534V11.2017H135.324V16.1048H140.272V20.5815H135.324V28.7889C135.324 29.6416 135.534 30.2811 135.956 30.7075C136.377 31.1338 137.008 31.4536 137.745 31.4536C138.693 31.4536 139.43 31.2404 140.061 30.7075L141.746 34.8645Z" fill="#7A71EF"/>
<path d="M51.5221 29.535C50.7852 30.1745 50.0482 30.7075 49.3113 31.0272C48.469 31.347 47.6268 31.4536 46.574 31.4536C45.1001 31.4536 43.8368 31.1338 42.784 30.3877C41.7312 29.6416 41.0995 28.6823 40.889 27.4032H55.9438C56.0491 26.4439 56.0491 25.911 56.0491 25.8044C56.0491 23.6726 55.628 21.8606 54.6805 20.2617C53.733 18.6629 52.5749 17.4904 50.9957 16.6377C49.4165 15.785 47.6268 15.3586 45.7318 15.3586C43.7315 15.3586 41.9418 15.785 40.2573 16.7443C38.6781 17.597 37.4148 18.8761 36.4673 20.4749C35.5197 22.0738 35.0986 23.8858 35.0986 25.8044C35.0986 27.8296 35.5197 29.6416 36.4673 31.1338C37.4148 32.7327 38.7834 33.9052 40.4678 34.8645C42.1523 35.7172 44.1526 36.2501 46.4687 36.2501C49.8377 36.2501 52.3643 35.2908 54.2594 33.4788L51.5221 29.535ZM42.3629 20.9013C43.2051 20.1552 44.3632 19.7288 45.6265 19.7288C46.8899 19.7288 48.0479 20.1552 48.8901 20.9013C49.7324 21.6474 50.3641 22.7133 50.4693 23.9924H40.6784C40.9942 22.7133 41.5206 21.6474 42.3629 20.9013Z" fill="#7A71EF"/>
<path d="M99.4235 29.535C98.6865 30.1745 97.9496 30.7075 97.2126 31.0272C96.3704 31.347 95.5282 31.4536 94.4754 31.4536C93.0015 31.4536 91.7381 31.1338 90.6854 30.3877C89.6326 29.6416 89.0009 28.6823 88.7903 27.4032H103.845C103.95 26.4439 103.95 25.911 103.95 25.8044C103.95 23.6726 103.529 21.8606 102.582 20.2617C101.634 18.6629 100.476 17.4904 98.8971 16.6377C97.3179 15.785 95.5282 15.3586 93.6332 15.3586C91.6329 15.3586 89.8431 15.785 88.1587 16.7443C86.5795 17.597 85.3161 18.8761 84.3686 20.4749C83.4211 22.0738 83 23.8858 83 25.8044C83 27.8296 83.4211 29.6416 84.3686 31.1338C85.3161 32.7327 86.6848 33.9052 88.3692 34.8645C90.0537 35.7172 92.054 36.2501 94.3701 36.2501C97.739 36.2501 100.266 35.2908 102.161 33.4788L99.4235 29.535ZM90.2642 20.9013C91.1065 20.1552 92.2645 19.7288 93.5279 19.7288C94.7912 19.7288 95.9493 20.1552 96.7915 20.9013C97.6338 21.6474 98.2654 22.7133 98.3707 23.9924H88.5798C88.7903 22.7133 89.3167 21.6474 90.2642 20.9013Z" fill="#7A71EF"/>
<path d="M28.887 27.0833C30.5715 26.3372 31.9401 25.2713 32.8876 23.8857C33.8351 22.5 34.2562 20.7946 34.2562 18.876C34.2562 16.9574 33.7298 15.1454 32.8876 13.7597C31.9401 12.374 30.6767 11.2016 28.9923 10.4554C27.3078 9.70932 25.3075 9.28296 22.9914 9.28296H11.7266V28.2558L16.7799 35.6105H23.2019L18.1486 28.2558H23.3072L28.3606 35.6105H34.7826L28.887 27.0833ZM26.7814 22.1802C25.8339 23.033 24.4653 23.3527 22.6756 23.3527H17.7275V14.2926H22.5703C24.36 14.2926 25.7286 14.719 26.6761 15.4651C27.6237 16.2113 28.0448 17.3837 28.0448 18.876C28.15 20.2616 27.7289 21.4341 26.7814 22.1802Z" fill="#7A71EF"/>
<path d="M73.8413 16.8508C74.7888 13.0136 72.9991 10.7752 71.3146 9.81589C70.2618 9.17636 68.6827 8.75 66.9982 8.75C64.5768 8.85659 62.6818 9.38953 61.3131 10.7752C59.9445 12.1609 59.3129 13.9729 59.3129 16.2112V17.9167H56.2598V22.3934H59.3129V35.5039H65.1032V22.5H69.4196V18.0233H64.9979V16.3178C64.9979 14.3992 65.8401 13.3333 67.6299 13.4399C68.7879 13.5465 69.8407 14.6124 69.5249 15.7849L73.8413 16.8508Z" fill="#7A71EF"/>
<path d="M189.226 30.7074V35.6105H169.118V9.28296H188.7V14.1861H175.014V19.9419H183.857V24.6318H175.014V30.7074H189.226Z" fill="#7A71EF"/>
<path d="M163.749 27.8294C161.96 29.8546 159.854 30.9205 157.222 30.9205C155.643 30.9205 154.169 30.6007 152.906 29.8546C151.642 29.1085 150.695 28.1492 149.958 26.8701C149.221 25.591 148.905 24.0988 148.905 22.5C148.905 20.9011 149.221 19.4089 149.958 18.1298C150.695 16.8507 151.642 15.8914 152.906 15.1453C154.169 14.3992 155.643 14.0794 157.222 14.0794C159.854 14.0794 161.96 15.1453 163.749 17.1705L166.802 12.6938C165.75 11.6279 164.486 10.7752 163.012 10.1356C161.223 9.2829 159.117 8.96313 156.906 8.96313C154.274 8.96313 151.853 9.49608 149.642 10.6686C147.536 11.841 145.852 13.4399 144.589 15.4651C143.325 17.4903 142.799 19.8352 142.799 22.5C142.799 25.0581 143.43 27.4031 144.589 29.5348C145.852 31.56 147.536 33.2655 149.642 34.3314C151.748 35.5038 154.169 36.0368 156.801 36.0368C159.012 36.0368 161.117 35.6104 162.907 34.8643C164.381 34.2248 165.644 33.372 166.697 32.1996L163.749 27.8294Z" fill="#7A71EF"/>
</svg>
