<svg width="166" height="37" viewBox="0 0 166 37" fill="none" xmlns="http://www.w3.org/2000/svg">
<path d="M62.1162 7.63232H66.9222V29.1918H62.1162V7.63232Z" fill="#7A71EF"/>
<path d="M91.3886 28.5786C89.9905 27.8775 88.8545 26.8258 88.0681 25.5112C87.2816 24.1966 86.8447 22.7068 86.8447 21.1292C86.8447 19.4641 87.2816 17.9742 88.0681 16.7472C88.8545 15.4326 89.9905 14.4686 91.3886 13.6798C92.7867 12.9787 94.3595 12.5405 96.1072 12.5405C97.8548 12.5405 99.3403 12.8911 100.651 13.6798C101.962 14.381 102.923 15.4326 103.535 16.8349L99.7772 18.8506C98.9034 17.3607 97.68 16.572 96.0198 16.572C94.7964 16.572 93.7479 17.0102 92.874 17.7989C92.0876 18.5877 91.6507 19.727 91.6507 21.1292C91.6507 22.5315 92.0876 23.6708 92.874 24.4596C93.6605 25.2483 94.7091 25.6865 96.0198 25.6865C97.68 25.6865 98.9034 24.8978 99.7772 23.4079L103.535 25.4236C102.923 26.7382 101.962 27.7899 100.651 28.491C99.3403 29.1921 97.8548 29.6303 96.1072 29.6303C94.3595 29.718 92.7867 29.3674 91.3886 28.5786Z" fill="#7A71EF"/>
<path d="M117.254 28.666C116.817 29.0166 116.206 29.2795 115.507 29.4548C114.808 29.6301 114.109 29.7177 113.322 29.7177C111.312 29.7177 109.827 29.1919 108.778 28.2278C107.73 27.2638 107.205 25.7739 107.205 23.7582V16.9223H104.584V13.2414H107.118V9.20996H111.924V13.2414H116.031V16.9223H111.924V23.6706C111.924 24.3717 112.099 24.8975 112.448 25.2481C112.798 25.5986 113.322 25.8616 113.934 25.8616C114.72 25.8616 115.332 25.6863 115.856 25.2481L117.254 28.666Z" fill="#7A71EF"/>
<path d="M42.3678 24.284C41.7561 24.8099 41.1445 25.2481 40.5328 25.511C39.8338 25.7739 39.1347 25.8616 38.2609 25.8616C37.0376 25.8616 35.989 25.5986 35.1152 24.9852C34.2414 24.3717 33.7171 23.5829 33.5423 22.5312H46.0378C46.1252 21.7425 46.1252 21.3043 46.1252 21.2166C46.1252 19.4638 45.7757 17.974 44.9893 16.6594C44.2028 15.3448 43.2416 14.3807 41.9309 13.6796C40.6202 12.9785 39.1347 12.6279 37.5618 12.6279C35.9016 12.6279 34.4161 12.9785 33.018 13.7672C31.7073 14.4684 30.6587 15.52 29.8723 16.8346C29.0859 18.1492 28.7363 19.6391 28.7363 21.2166C28.7363 22.8818 29.0859 24.3717 29.8723 25.5986C30.6587 26.9132 31.7947 27.8773 33.1928 28.666C34.5909 29.3672 36.2511 29.8054 38.1735 29.8054C40.9697 29.8054 43.0669 29.0166 44.6397 27.5267L42.3678 24.284ZM34.7656 17.1852C35.4647 16.5717 36.4259 16.2212 37.4745 16.2212C38.523 16.2212 39.4842 16.5717 40.1833 17.1852C40.8823 17.7987 41.4066 18.6751 41.494 19.7268H33.3675C33.6297 18.6751 34.0666 17.7987 34.7656 17.1852Z" fill="#7A71EF"/>
<path d="M82.1266 24.284C81.5149 24.8099 80.9033 25.2481 80.2916 25.511C79.5926 25.7739 78.8935 25.8616 78.0197 25.8616C76.7963 25.8616 75.7478 25.5986 74.874 24.9852C74.0001 24.3717 73.4759 23.5829 73.3011 22.5312H85.7966C85.884 21.7425 85.884 21.3043 85.884 21.2166C85.884 19.4638 85.5345 17.974 84.7481 16.6594C83.9616 15.3448 83.0004 14.3807 81.6897 13.6796C80.379 12.9785 78.8935 12.6279 77.3206 12.6279C75.6604 12.6279 74.1749 12.9785 72.7768 13.7672C71.4661 14.4684 70.4175 15.52 69.6311 16.8346C68.8446 18.1492 68.4951 19.6391 68.4951 21.2166C68.4951 22.8818 68.8446 24.3717 69.6311 25.5986C70.4175 26.9132 71.5535 27.8773 72.9516 28.666C74.3497 29.3672 76.0099 29.8054 77.9323 29.8054C80.7285 29.8054 82.8257 29.0166 84.3985 27.5267L82.1266 24.284ZM74.5244 17.1852C75.2235 16.5717 76.1847 16.2212 77.2333 16.2212C78.2818 16.2212 79.243 16.5717 79.9421 17.1852C80.6411 17.7987 81.1654 18.6751 81.2528 19.7268H73.1263C73.3011 18.6751 73.738 17.7987 74.5244 17.1852Z" fill="#7A71EF"/>
<path d="M23.5811 22.2682C24.9792 21.6547 26.1151 20.7783 26.9015 19.639C27.688 18.4997 28.0375 17.0974 28.0375 15.5199C28.0375 13.9424 27.6006 12.4525 26.9015 11.3132C26.1151 10.1739 25.0665 9.20984 23.6684 8.59636C22.2703 7.98288 20.6101 7.63232 18.6877 7.63232H9.33789V23.2322L13.5322 29.2794H18.8625L14.6682 23.2322H18.9498L23.1441 29.2794H28.4744L23.5811 22.2682ZM21.8334 18.2368C21.047 18.9379 19.911 19.2008 18.4256 19.2008H14.3186V11.7514H18.3382C19.8237 11.7514 20.9596 12.102 21.746 12.7154C22.5325 13.3289 22.882 14.293 22.882 15.5199C22.9694 16.6592 22.6199 17.6233 21.8334 18.2368Z" fill="#7A71EF"/>
<path d="M60.8925 13.855C61.6789 10.6999 60.1934 8.8595 58.7953 8.07074C57.9215 7.5449 56.6108 7.19434 55.2127 7.19434C53.2029 7.28198 51.6301 7.72018 50.4941 8.8595C49.3582 9.99882 48.8339 11.4887 48.8339 13.3291V14.7314H46.2998V18.4123H48.8339V29.192H53.6398V18.4999H57.2225V14.819H53.5525V13.4168C53.5525 11.8393 54.2515 10.9629 55.737 11.0505C56.6982 11.1381 57.572 12.0145 57.3099 12.9786L60.8925 13.855Z" fill="#7A71EF"/>
<path d="M156.663 25.248V29.2794H139.973V7.63232H156.226V11.6638H144.866V16.3963H152.206V20.2525H144.866V25.248H156.663Z" fill="#7A71EF"/>
<path d="M135.517 22.8819C134.031 24.5471 132.284 25.4235 130.099 25.4235C128.788 25.4235 127.565 25.1605 126.517 24.5471C125.468 23.9336 124.682 23.1448 124.07 22.0931C123.458 21.0415 123.196 19.8145 123.196 18.4999C123.196 17.1853 123.458 15.9583 124.07 14.9067C124.682 13.855 125.468 13.0662 126.517 12.4527C127.565 11.8393 128.788 11.5763 130.099 11.5763C132.284 11.5763 134.031 12.4527 135.517 14.1179L138.051 10.437C137.177 9.56063 136.128 8.85951 134.905 8.33367C133.42 7.63255 131.672 7.36963 129.837 7.36963C127.652 7.36963 125.643 7.80783 123.808 8.77187C122.06 9.73591 120.662 11.0505 119.613 12.7157C118.565 14.3808 118.128 16.3089 118.128 18.4999C118.128 20.6033 118.652 22.5313 119.613 24.2841C120.662 25.9493 122.06 27.3515 123.808 28.2279C125.555 29.192 127.565 29.6302 129.75 29.6302C131.585 29.6302 133.332 29.2796 134.818 28.6661C136.041 28.1403 137.09 27.4392 137.963 26.4751L135.517 22.8819Z" fill="#7A71EF"/>
</svg>
