<svg width="166" height="37" viewBox="0 0 166 37" fill="none" xmlns="http://www.w3.org/2000/svg">
<path d="M62.1162 7.63281H66.9222V29.1922H62.1162V7.63281Z" fill="#7A71EF"/>
<path d="M91.3886 28.5791C89.9905 27.878 88.8545 26.8263 88.0681 25.5117C87.2816 24.1971 86.8447 22.7073 86.8447 21.1297C86.8447 19.4646 87.2816 17.9747 88.0681 16.7477C88.8545 15.4331 89.9905 14.4691 91.3886 13.6803C92.7867 12.9792 94.3595 12.541 96.1072 12.541C97.8548 12.541 99.3403 12.8916 100.651 13.6803C101.962 14.3815 102.923 15.4331 103.535 16.8354L99.7772 18.8511C98.9034 17.3612 97.68 16.5725 96.0198 16.5725C94.7964 16.5725 93.7479 17.0107 92.874 17.7994C92.0876 18.5882 91.6507 19.7275 91.6507 21.1297C91.6507 22.532 92.0876 23.6713 92.874 24.4601C93.6605 25.2488 94.7091 25.687 96.0198 25.687C97.68 25.687 98.9034 24.8983 99.7772 23.4084L103.535 25.4241C102.923 26.7387 101.962 27.7904 100.651 28.4915C99.3403 29.1926 97.8548 29.6308 96.1072 29.6308C94.3595 29.7185 92.7867 29.3679 91.3886 28.5791Z" fill="#7A71EF"/>
<path d="M117.254 28.666C116.817 29.0166 116.206 29.2795 115.507 29.4548C114.808 29.6301 114.109 29.7177 113.322 29.7177C111.312 29.7177 109.827 29.1919 108.778 28.2278C107.73 27.2638 107.205 25.7739 107.205 23.7582V16.9223H104.584V13.2414H107.118V9.20996H111.924V13.2414H116.031V16.9223H111.924V23.6706C111.924 24.3717 112.099 24.8975 112.448 25.2481C112.798 25.5986 113.322 25.8616 113.934 25.8616C114.72 25.8616 115.332 25.6863 115.856 25.2481L117.254 28.666Z" fill="#7A71EF"/>
<path d="M42.3681 24.284C41.7564 24.8099 41.1447 25.2481 40.5331 25.511C39.834 25.7739 39.135 25.8616 38.2611 25.8616C37.0378 25.8616 35.9892 25.5986 35.1154 24.9852C34.2416 24.3717 33.7173 23.5829 33.5425 22.5312H46.0381C46.1255 21.7425 46.1255 21.3043 46.1255 21.2166C46.1255 19.4638 45.7759 17.974 44.9895 16.6594C44.2031 15.3448 43.2419 14.3807 41.9312 13.6796C40.6204 12.9785 39.135 12.6279 37.5621 12.6279C35.9018 12.6279 34.4164 12.9785 33.0183 13.7672C31.7075 14.4684 30.659 15.52 29.8725 16.8346C29.0861 18.1492 28.7366 19.6391 28.7366 21.2166C28.7366 22.8818 29.0861 24.3717 29.8725 25.5986C30.659 26.9132 31.7949 27.8773 33.193 28.666C34.5911 29.3672 36.2514 29.8054 38.1738 29.8054C40.97 29.8054 43.0671 29.0166 44.64 27.5267L42.3681 24.284ZM34.7659 17.1852C35.4649 16.5717 36.4261 16.2212 37.4747 16.2212C38.5233 16.2212 39.4845 16.5717 40.1835 17.1852C40.8826 17.7987 41.4069 18.6751 41.4942 19.7268H33.3678C33.6299 18.6751 34.0668 17.7987 34.7659 17.1852Z" fill="#7A71EF"/>
<path d="M82.1266 24.284C81.5149 24.8099 80.9033 25.2481 80.2916 25.511C79.5926 25.7739 78.8935 25.8616 78.0197 25.8616C76.7963 25.8616 75.7478 25.5986 74.874 24.9852C74.0001 24.3717 73.4759 23.5829 73.3011 22.5312H85.7966C85.884 21.7425 85.884 21.3043 85.884 21.2166C85.884 19.4638 85.5345 17.974 84.7481 16.6594C83.9616 15.3448 83.0004 14.3807 81.6897 13.6796C80.379 12.9785 78.8935 12.6279 77.3206 12.6279C75.6604 12.6279 74.1749 12.9785 72.7768 13.7672C71.4661 14.4684 70.4175 15.52 69.6311 16.8346C68.8446 18.1492 68.4951 19.6391 68.4951 21.2166C68.4951 22.8818 68.8446 24.3717 69.6311 25.5986C70.4175 26.9132 71.5535 27.8773 72.9516 28.666C74.3497 29.3672 76.0099 29.8054 77.9323 29.8054C80.7285 29.8054 82.8257 29.0166 84.3985 27.5267L82.1266 24.284ZM74.5244 17.1852C75.2235 16.5717 76.1847 16.2212 77.2333 16.2212C78.2818 16.2212 79.243 16.5717 79.9421 17.1852C80.6411 17.7987 81.1654 18.6751 81.2528 19.7268H73.1263C73.3011 18.6751 73.738 17.7987 74.5244 17.1852Z" fill="#7A71EF"/>
<path d="M23.5811 22.2687C24.9792 21.6552 26.1151 20.7788 26.9015 19.6395C27.688 18.5002 28.0375 17.0979 28.0375 15.5204C28.0375 13.9429 27.6006 12.453 26.9015 11.3137C26.1151 10.1744 25.0665 9.21033 23.6684 8.59685C22.2703 7.98337 20.6101 7.63281 18.6877 7.63281H9.33789V23.2327L13.5322 29.2799H18.8625L14.6682 23.2327H18.9498L23.1441 29.2799H28.4744L23.5811 22.2687ZM21.8334 18.2372C21.047 18.9384 19.911 19.2013 18.4256 19.2013H14.3186V11.7519H18.3382C19.8237 11.7519 20.9596 12.1025 21.746 12.7159C22.5325 13.3294 22.882 14.2934 22.882 15.5204C22.9694 16.6597 22.6199 17.6238 21.8334 18.2372Z" fill="#7A71EF"/>
<path d="M60.8925 13.855C61.6789 10.6999 60.1934 8.8595 58.7953 8.07074C57.9215 7.5449 56.6108 7.19434 55.2127 7.19434C53.2029 7.28198 51.6301 7.72018 50.4941 8.8595C49.3582 9.99882 48.8339 11.4887 48.8339 13.3291V14.7314H46.2998V18.4123H48.8339V29.192H53.6398V18.4999H57.2225V14.819H53.5525V13.4168C53.5525 11.8393 54.2515 10.9629 55.737 11.0505C56.6982 11.1381 57.572 12.0145 57.3099 12.9786L60.8925 13.855Z" fill="#7A71EF"/>
<path d="M156.663 25.2484V29.2799H139.973V7.63281H156.226V11.6643H144.866V16.3968H152.206V20.253H144.866V25.2484H156.663Z" fill="#7A71EF"/>
<path d="M135.517 22.8814C134.031 24.5466 132.283 25.423 130.099 25.423C128.788 25.423 127.565 25.1601 126.516 24.5466C125.468 23.9331 124.681 23.1443 124.07 22.0927C123.458 21.041 123.196 19.814 123.196 18.4994C123.196 17.1848 123.458 15.9579 124.07 14.9062C124.681 13.8545 125.468 13.0657 126.516 12.4523C127.565 11.8388 128.788 11.5759 130.099 11.5759C132.283 11.5759 134.031 12.4523 135.517 14.1174L138.051 10.4365C137.177 9.56014 136.128 8.85902 134.905 8.33318C133.419 7.63206 131.672 7.36914 129.837 7.36914C127.652 7.36914 125.642 7.80734 123.807 8.77138C122.06 9.73542 120.662 11.05 119.613 12.7152C118.565 14.3803 118.128 16.3084 118.128 18.4994C118.128 20.6028 118.652 22.5309 119.613 24.2837C120.662 25.9488 122.06 27.3511 123.807 28.2275C125.555 29.1915 127.565 29.6297 129.749 29.6297C131.584 29.6297 133.332 29.2791 134.818 28.6657C136.041 28.1398 137.089 27.4387 137.963 26.4747L135.517 22.8814Z" fill="#7A71EF"/>
</svg>
